# MagicaVoxel @ Ephtracy

# group
g PlaceholderMechanic

# material
mtllib PlaceholderMechanic.mtl
usemtl palette

# normals
vn -1 0 0
vn 1 0 0
vn 0 0 1
vn 0 0 -1
vn 0 -1 0
vn 0 1 0

# texcoords
vt 0.0605469 0.5
vt 0.0917969 0.5
vt 0.857422 0.5
vt 0.919922 0.5
vt 0.958984 0.5
vt 0.994141 0.5

# verts
v -1 0 3
v -1 0 -0
v -1 0 -3
v -1 0 -6
v -1 1 3
v -1 1 -0
v -1 1 -3
v -1 1 -6
v -1 24 1
v -1 24 -0
v -1 24 -3
v -1 24 -4
v -1 25 1
v -1 25 -0
v -1 25 -3
v -1 25 -4
v -1 26 -0
v -1 26 -3
v 0 11 1
v 0 11 -4
v 0 16 1
v 0 16 -4
v 1 10 2
v 1 10 -5
v 1 11 1
v 1 11 -4
v 1 16 1
v 1 16 -4
v 1 17 2
v 1 17 -5
v 1 21 1
v 1 21 -1
v 1 21 -2
v 1 21 -4
v 1 22 -1
v 1 22 -2
v 1 23 -0
v 1 23 -1
v 1 23 -2
v 1 23 -3
v 1 24 1
v 1 24 -0
v 1 24 -1
v 1 24 -2
v 1 24 -3
v 1 24 -4
v 1 25 1
v 1 25 -0
v 1 25 -1
v 1 25 -2
v 1 25 -3
v 1 25 -4
v 1 26 1
v 1 26 -0
v 1 26 -3
v 1 26 -4
v 2 1 3
v 2 1 -0
v 2 1 -3
v 2 1 -6
v 2 9 -0
v 2 9 -3
v 2 10 2
v 2 10 -5
v 2 17 3
v 2 17 2
v 2 17 -0
v 2 17 -3
v 2 17 -5
v 2 17 -6
v 2 18 11
v 2 18 7
v 2 18 4
v 2 18 -7
v 2 18 -10
v 2 18 -14
v 2 19 4
v 2 19 3
v 2 19 -6
v 2 19 -7
v 2 20 11
v 2 20 7
v 2 20 4
v 2 20 3
v 2 20 2
v 2 20 -0
v 2 20 -3
v 2 20 -5
v 2 20 -6
v 2 20 -7
v 2 20 -10
v 2 20 -14
v 2 21 4
v 2 21 3
v 2 21 -0
v 2 21 -1
v 2 21 -2
v 2 21 -3
v 2 21 -6
v 2 21 -7
v 2 26 -0
v 2 26 -3
v 2 27 -0
v 2 27 -3
v 5 0 3
v 5 0 -0
v 5 0 -3
v 5 0 -6
v 5 1 3
v 5 1 -0
v 5 1 -3
v 5 1 -6
v 5 9 2
v 5 9 -0
v 5 9 -3
v 5 9 -5
v 5 17 3
v 5 17 2
v 5 17 -5
v 5 17 -6
v 5 18 11
v 5 18 7
v 5 18 4
v 5 18 2
v 5 18 -0
v 5 18 -3
v 5 18 -5
v 5 18 -7
v 5 18 -10
v 5 18 -14
v 5 19 4
v 5 19 3
v 5 19 -6
v 5 19 -7
v 5 20 11
v 5 20 7
v 5 20 4
v 5 20 3
v 5 20 2
v 5 20 -0
v 5 20 -3
v 5 20 -5
v 5 20 -6
v 5 20 -7
v 5 20 -10
v 5 20 -14
v 5 21 4
v 5 21 3
v 5 21 -0
v 5 21 -1
v 5 21 -2
v 5 21 -3
v 5 21 -6
v 5 21 -7
v 5 25 1
v 5 25 -0
v 5 25 -3
v 5 25 -4
v 5 26 1
v 5 26 -0
v 5 26 -3
v 5 26 -4
v 5 27 -0
v 5 27 -3
v 6 9 2
v 6 9 -5
v 6 11 1
v 6 11 -4
v 6 17 1
v 6 17 -4
v 6 18 2
v 6 18 -5
v 6 21 1
v 6 21 -0
v 6 21 -1
v 6 21 -2
v 6 21 -3
v 6 21 -4
v 6 22 -0
v 6 22 -1
v 6 22 -2
v 6 22 -3
v 6 24 1
v 6 24 -4
v 6 25 1
v 6 25 -0
v 6 25 -3
v 6 25 -4
v 6 26 -0
v 6 26 -3
v 7 11 1
v 7 11 -4
v 7 17 1
v 7 17 -4
v 2 18 11
v 2 20 11
v 5 18 11
v 5 20 11
v 2 20 4
v 2 21 4
v 5 20 4
v 5 21 4
v -1 0 3
v -1 1 3
v 2 1 3
v 2 17 3
v 2 19 3
v 5 0 3
v 5 1 3
v 5 17 3
v 5 19 3
v 1 10 2
v 1 17 2
v 2 10 2
v 2 17 2
v 5 9 2
v 5 17 2
v 5 18 2
v 6 9 2
v 6 18 2
v -1 24 1
v -1 25 1
v 0 11 1
v 0 16 1
v 1 11 1
v 1 16 1
v 1 21 1
v 1 24 1
v 1 25 1
v 1 26 1
v 2 23 1
v 2 24 1
v 4 22 1
v 4 23 1
v 5 21 1
v 5 22 1
v 5 25 1
v 5 26 1
v 6 11 1
v 6 17 1
v 6 21 1
v 6 24 1
v 6 25 1
v 7 11 1
v 7 17 1
v -1 25 -0
v -1 26 -0
v 1 25 -0
v 1 26 -0
v 2 20 -0
v 2 21 -0
v 2 26 -0
v 2 27 -0
v 5 20 -0
v 5 21 -0
v 5 25 -0
v 5 26 -0
v 5 27 -0
v 6 25 -0
v 6 26 -0
v -1 0 -3
v -1 1 -3
v -1 24 -3
v -1 25 -3
v 1 24 -3
v 1 25 -3
v 2 1 -3
v 2 9 -3
v 5 0 -3
v 5 1 -3
v 5 9 -3
v 2 20 -6
v 2 21 -6
v 5 20 -6
v 5 21 -6
v 2 18 -7
v 2 19 -7
v 5 18 -7
v 5 19 -7
v 2 18 4
v 2 19 4
v 5 18 4
v 5 19 4
v 2 20 3
v 2 21 3
v 5 20 3
v 5 21 3
v -1 0 -0
v -1 1 -0
v -1 24 -0
v -1 25 -0
v 1 24 -0
v 1 25 -0
v 2 1 -0
v 2 9 -0
v 5 0 -0
v 5 1 -0
v 5 9 -0
v -1 25 -3
v -1 26 -3
v 1 25 -3
v 1 26 -3
v 2 20 -3
v 2 21 -3
v 2 26 -3
v 2 27 -3
v 5 20 -3
v 5 21 -3
v 5 25 -3
v 5 26 -3
v 5 27 -3
v 6 25 -3
v 6 26 -3
v -1 24 -4
v -1 25 -4
v 0 11 -4
v 0 16 -4
v 1 11 -4
v 1 16 -4
v 1 21 -4
v 1 24 -4
v 1 25 -4
v 1 26 -4
v 2 23 -4
v 2 24 -4
v 4 22 -4
v 4 23 -4
v 5 21 -4
v 5 22 -4
v 5 25 -4
v 5 26 -4
v 6 11 -4
v 6 17 -4
v 6 21 -4
v 6 24 -4
v 6 25 -4
v 7 11 -4
v 7 17 -4
v 1 10 -5
v 1 17 -5
v 2 10 -5
v 2 17 -5
v 5 9 -5
v 5 17 -5
v 5 18 -5
v 6 9 -5
v 6 18 -5
v -1 0 -6
v -1 1 -6
v 2 1 -6
v 2 17 -6
v 2 19 -6
v 5 0 -6
v 5 1 -6
v 5 17 -6
v 5 19 -6
v 2 20 -7
v 2 21 -7
v 5 20 -7
v 5 21 -7
v 2 18 -14
v 2 20 -14
v 5 18 -14
v 5 20 -14
v -1 0 3
v 5 0 3
v -1 0 -0
v 5 0 -0
v -1 0 -3
v 5 0 -3
v -1 0 -6
v 5 0 -6
v 5 9 2
v 6 9 2
v 2 9 -0
v 5 9 -0
v 2 9 -3
v 5 9 -3
v 5 9 -5
v 6 9 -5
v 1 10 2
v 2 10 2
v 1 10 -5
v 2 10 -5
v 0 11 1
v 1 11 1
v 6 11 1
v 7 11 1
v 0 11 -4
v 1 11 -4
v 6 11 -4
v 7 11 -4
v 2 18 11
v 5 18 11
v 2 18 7
v 5 18 7
v 2 18 4
v 5 18 4
v 2 18 -7
v 5 18 -7
v 2 18 -10
v 5 18 -10
v 2 18 -14
v 5 18 -14
v 2 19 4
v 5 19 4
v 2 19 3
v 5 19 3
v 2 19 -6
v 5 19 -6
v 2 19 -7
v 5 19 -7
v 1 21 1
v 5 21 1
v 6 21 1
v 2 21 -0
v 5 21 -0
v 6 21 -0
v 1 21 -1
v 2 21 -1
v 5 21 -1
v 6 21 -1
v 1 21 -2
v 2 21 -2
v 5 21 -2
v 6 21 -2
v 2 21 -3
v 5 21 -3
v 6 21 -3
v 1 21 -4
v 5 21 -4
v 6 21 -4
v -1 24 1
v 1 24 1
v -1 24 -0
v 1 24 -0
v -1 24 -3
v 1 24 -3
v -1 24 -4
v 1 24 -4
v -1 25 -0
v 1 25 -0
v 1 25 -1
v 1 25 -2
v -1 25 -3
v 1 25 -3
v -1 1 3
v 2 1 3
v -1 1 -0
v 2 1 -0
v -1 1 -3
v 2 1 -3
v -1 1 -6
v 2 1 -6
v 0 16 1
v 1 16 1
v 0 16 -4
v 1 16 -4
v 1 17 2
v 2 17 2
v 6 17 1
v 7 17 1
v 2 17 -0
v 2 17 -3
v 6 17 -4
v 7 17 -4
v 1 17 -5
v 2 17 -5
v 5 18 2
v 6 18 2
v 5 18 -0
v 5 18 -3
v 5 18 -5
v 6 18 -5
v 2 20 11
v 5 20 11
v 2 20 7
v 5 20 7
v 2 20 4
v 5 20 4
v 2 20 3
v 5 20 3
v 2 20 2
v 5 20 2
v 2 20 -0
v 5 20 -0
v 2 20 -3
v 5 20 -3
v 2 20 -5
v 5 20 -5
v 2 20 -6
v 5 20 -6
v 2 20 -7
v 5 20 -7
v 2 20 -10
v 5 20 -10
v 2 20 -14
v 5 20 -14
v 2 21 4
v 5 21 4
v 2 21 3
v 5 21 3
v 2 21 -6
v 5 21 -6
v 2 21 -7
v 5 21 -7
v -1 25 1
v 1 25 1
v 5 25 1
v 6 25 1
v -1 25 -0
v 1 25 -0
v 5 25 -0
v 6 25 -0
v -1 25 -3
v 1 25 -3
v 5 25 -3
v 6 25 -3
v -1 25 -4
v 1 25 -4
v 5 25 -4
v 6 25 -4
v 1 26 1
v 5 26 1
v -1 26 -0
v 1 26 -0
v 2 26 -0
v 5 26 -0
v 6 26 -0
v -1 26 -3
v 1 26 -3
v 2 26 -3
v 5 26 -3
v 6 26 -3
v 1 26 -4
v 5 26 -4
v 2 27 -0
v 5 27 -0
v 2 27 -3
v 5 27 -3

# faces
f 5/6/1 2/6/1 1/6/1
f 6/6/1 2/6/1 5/6/1
f 7/6/1 4/6/1 3/6/1
f 8/6/1 4/6/1 7/6/1
f 13/4/1 10/4/1 9/4/1
f 14/4/1 10/4/1 13/4/1
f 15/4/1 12/4/1 11/4/1
f 16/4/1 12/4/1 15/4/1
f 17/4/1 15/4/1 14/4/1
f 18/4/1 15/4/1 17/4/1
f 21/4/1 20/4/1 19/4/1
f 22/4/1 20/4/1 21/4/1
f 25/4/1 24/4/1 23/4/1
f 26/4/1 24/4/1 25/4/1
f 27/4/1 25/4/1 23/4/1
f 28/4/1 24/4/1 26/4/1
f 29/4/1 27/4/1 23/4/1
f 29/4/1 28/4/1 27/4/1
f 30/4/1 24/4/1 28/4/1
f 30/4/1 28/4/1 29/4/1
f 35/1/1 32/1/1 31/1/1
f 35/3/1 33/3/1 32/3/1
f 36/1/1 34/1/1 33/1/1
f 36/3/1 33/3/1 35/3/1
f 37/1/1 35/1/1 31/1/1
f 37/1/1 36/1/1 35/1/1
f 38/1/1 36/1/1 37/1/1
f 39/1/1 34/1/1 36/1/1
f 39/1/1 36/1/1 38/1/1
f 40/1/1 34/1/1 39/1/1
f 41/1/1 37/1/1 31/1/1
f 42/6/1 38/6/1 37/6/1
f 42/1/1 37/1/1 41/1/1
f 43/1/1 39/1/1 38/1/1
f 43/6/1 38/6/1 42/6/1
f 44/6/1 40/6/1 39/6/1
f 44/1/1 39/1/1 43/1/1
f 45/1/1 34/1/1 40/1/1
f 45/6/1 40/6/1 44/6/1
f 46/1/1 34/1/1 45/1/1
f 48/5/1 43/5/1 42/5/1
f 49/1/1 44/1/1 43/1/1
f 49/5/1 43/5/1 48/5/1
f 50/5/1 45/5/1 44/5/1
f 50/1/1 44/1/1 49/1/1
f 51/5/1 45/5/1 50/5/1
f 53/4/1 48/4/1 47/4/1
f 54/4/1 48/4/1 53/4/1
f 55/4/1 52/4/1 51/4/1
f 56/4/1 52/4/1 55/4/1
f 61/4/1 58/4/1 57/4/1
f 62/4/1 60/4/1 59/4/1
f 63/4/1 61/4/1 57/4/1
f 63/4/1 62/4/1 61/4/1
f 64/4/1 60/4/1 62/4/1
f 64/4/1 62/4/1 63/4/1
f 65/4/1 63/4/1 57/4/1
f 66/4/1 63/4/1 65/4/1
f 69/4/1 60/4/1 64/4/1
f 70/4/1 60/4/1 69/4/1
f 77/2/1 73/2/1 72/2/1
f 78/2/1 66/2/1 65/2/1
f 79/2/1 70/2/1 69/2/1
f 80/2/1 75/2/1 74/2/1
f 81/1/1 72/1/1 71/1/1
f 82/2/1 77/2/1 72/2/1
f 82/1/1 72/1/1 81/1/1
f 82/2/1 78/2/1 77/2/1
f 83/2/1 78/2/1 82/2/1
f 84/2/1 66/2/1 78/2/1
f 84/2/1 78/2/1 83/2/1
f 85/4/1 67/4/1 66/4/1
f 85/2/1 66/2/1 84/2/1
f 86/2/1 68/2/1 67/2/1
f 86/4/1 67/4/1 85/4/1
f 87/4/1 69/4/1 68/4/1
f 87/2/1 68/2/1 86/2/1
f 88/2/1 80/2/1 79/2/1
f 88/4/1 69/4/1 87/4/1
f 88/2/1 79/2/1 69/2/1
f 89/2/1 80/2/1 88/2/1
f 90/2/1 75/2/1 80/2/1
f 90/2/1 80/2/1 89/2/1
f 91/1/1 76/1/1 75/1/1
f 91/2/1 75/2/1 90/2/1
f 92/1/1 76/1/1 91/1/1
f 93/2/1 84/2/1 83/2/1
f 94/2/1 84/2/1 93/2/1
f 95/1/1 87/1/1 86/1/1
f 96/1/1 87/1/1 95/1/1
f 97/1/1 87/1/1 96/1/1
f 98/1/1 87/1/1 97/1/1
f 99/2/1 90/2/1 89/2/1
f 100/2/1 90/2/1 99/2/1
f 103/4/1 102/4/1 101/4/1
f 104/4/1 102/4/1 103/4/1
f 105/6/2 106/6/2 109/6/2
f 109/6/2 106/6/2 110/6/2
f 107/6/2 108/6/2 111/6/2
f 111/6/2 108/6/2 112/6/2
f 109/4/2 110/4/2 113/4/2
f 113/4/2 110/4/2 114/4/2
f 111/4/2 112/4/2 115/4/2
f 115/4/2 112/4/2 116/4/2
f 109/4/2 113/4/2 117/4/2
f 117/4/2 113/4/2 118/4/2
f 116/4/2 112/4/2 119/4/2
f 119/4/2 112/4/2 120/4/2
f 117/2/2 118/2/2 124/2/2
f 119/2/2 120/2/2 127/2/2
f 122/2/2 123/2/2 131/2/2
f 117/2/2 124/2/2 132/2/2
f 127/2/2 120/2/2 133/2/2
f 128/2/2 129/2/2 134/2/2
f 121/1/2 122/1/2 135/1/2
f 131/2/2 132/2/2 136/2/2
f 135/1/2 122/1/2 136/1/2
f 122/2/2 131/2/2 136/2/2
f 136/2/2 132/2/2 137/2/2
f 132/2/2 124/2/2 138/2/2
f 137/2/2 132/2/2 138/2/2
f 124/4/2 125/4/2 139/4/2
f 138/2/2 124/2/2 139/2/2
f 125/2/2 126/2/2 140/2/2
f 139/4/2 125/4/2 140/4/2
f 126/4/2 127/4/2 141/4/2
f 140/2/2 126/2/2 141/2/2
f 133/2/2 134/2/2 142/2/2
f 141/4/2 127/4/2 142/4/2
f 127/2/2 133/2/2 142/2/2
f 142/2/2 134/2/2 143/2/2
f 134/2/2 129/2/2 144/2/2
f 143/2/2 134/2/2 144/2/2
f 129/1/2 130/1/2 145/1/2
f 144/2/2 129/2/2 145/2/2
f 145/1/2 130/1/2 146/1/2
f 137/2/2 138/2/2 147/2/2
f 147/2/2 138/2/2 148/2/2
f 140/1/2 141/1/2 149/1/2
f 149/1/2 141/1/2 150/1/2
f 150/1/2 141/1/2 151/1/2
f 151/1/2 141/1/2 152/1/2
f 143/2/2 144/2/2 153/2/2
f 153/2/2 144/2/2 154/2/2
f 155/4/2 156/4/2 159/4/2
f 159/4/2 156/4/2 160/4/2
f 157/4/2 158/4/2 161/4/2
f 161/4/2 158/4/2 162/4/2
f 160/4/2 161/4/2 163/4/2
f 163/4/2 161/4/2 164/4/2
f 165/4/2 166/4/2 167/4/2
f 167/4/2 166/4/2 168/4/2
f 165/4/2 167/4/2 169/4/2
f 168/4/2 166/4/2 170/4/2
f 165/4/2 169/4/2 171/4/2
f 169/4/2 170/4/2 171/4/2
f 170/4/2 166/4/2 172/4/2
f 171/4/2 170/4/2 172/4/2
f 173/6/2 174/6/2 179/6/2
f 174/1/2 175/1/2 179/1/2
f 175/6/2 176/6/2 180/6/2
f 179/1/2 175/1/2 180/1/2
f 176/1/2 177/1/2 181/1/2
f 180/6/2 176/6/2 181/6/2
f 177/6/2 178/6/2 182/6/2
f 181/1/2 177/1/2 182/1/2
f 180/6/2 181/6/2 183/6/2
f 179/6/2 180/6/2 183/6/2
f 181/6/2 182/6/2 183/6/2
f 173/6/2 179/6/2 183/6/2
f 182/6/2 178/6/2 184/6/2
f 183/6/2 182/6/2 184/6/2
f 183/4/2 184/4/2 185/4/2
f 185/4/2 184/4/2 186/4/2
f 186/4/2 184/4/2 187/4/2
f 187/4/2 184/4/2 188/4/2
f 186/4/2 187/4/2 189/4/2
f 189/4/2 187/4/2 190/4/2
f 191/4/2 192/4/2 193/4/2
f 193/4/2 192/4/2 194/4/2
f 197/1/3 196/1/3 195/1/3
f 198/1/3 196/1/3 197/1/3
f 201/2/3 200/2/3 199/2/3
f 202/2/3 200/2/3 201/2/3
f 205/6/3 204/6/3 203/6/3
f 208/6/3 205/6/3 203/6/3
f 209/4/3 206/4/3 205/4/3
f 209/6/3 205/6/3 208/6/3
f 210/2/3 207/2/3 206/2/3
f 210/4/3 206/4/3 209/4/3
f 211/2/3 207/2/3 210/2/3
f 214/4/3 213/4/3 212/4/3
f 215/4/3 213/4/3 214/4/3
f 219/4/3 217/4/3 216/4/3
f 219/4/3 218/4/3 217/4/3
f 220/4/3 218/4/3 219/4/3
f 225/4/3 224/4/3 223/4/3
f 226/4/3 224/4/3 225/4/3
f 228/4/3 222/4/3 221/4/3
f 229/4/3 222/4/3 228/4/3
f 231/1/3 228/1/3 227/1/3
f 232/4/3 230/4/3 229/4/3
f 232/1/3 228/1/3 231/1/3
f 232/4/3 229/4/3 228/4/3
f 233/1/3 231/1/3 227/1/3
f 234/6/3 232/6/3 231/6/3
f 234/1/3 231/1/3 233/1/3
f 235/1/3 233/1/3 227/1/3
f 236/6/3 234/6/3 233/6/3
f 236/1/3 233/1/3 235/1/3
f 237/4/3 230/4/3 232/4/3
f 238/4/3 230/4/3 237/4/3
f 241/6/3 236/6/3 235/6/3
f 242/6/3 234/6/3 236/6/3
f 242/6/3 236/6/3 241/6/3
f 242/6/3 232/6/3 234/6/3
f 242/4/3 237/4/3 232/4/3
f 243/4/3 237/4/3 242/4/3
f 244/4/3 240/4/3 239/4/3
f 245/4/3 240/4/3 244/4/3
f 248/4/3 247/4/3 246/4/3
f 249/4/3 247/4/3 248/4/3
f 254/1/3 251/1/3 250/1/3
f 255/1/3 251/1/3 254/1/3
f 257/4/3 253/4/3 252/4/3
f 258/4/3 253/4/3 257/4/3
f 259/4/3 257/4/3 256/4/3
f 260/4/3 257/4/3 259/4/3
f 265/4/3 264/4/3 263/4/3
f 266/4/3 264/4/3 265/4/3
f 267/6/3 262/6/3 261/6/3
f 269/6/3 267/6/3 261/6/3
f 270/4/3 268/4/3 267/4/3
f 270/6/3 267/6/3 269/6/3
f 271/4/3 268/4/3 270/4/3
f 274/2/3 273/2/3 272/2/3
f 275/2/3 273/2/3 274/2/3
f 278/2/3 277/2/3 276/2/3
f 279/2/3 277/2/3 278/2/3
f 280/2/4 281/2/4 282/2/4
f 282/2/4 281/2/4 283/2/4
f 284/2/4 285/2/4 286/2/4
f 286/2/4 285/2/4 287/2/4
f 290/4/4 291/4/4 292/4/4
f 292/4/4 291/4/4 293/4/4
f 288/6/4 289/6/4 294/6/4
f 288/6/4 294/6/4 296/6/4
f 294/4/4 295/4/4 297/4/4
f 296/6/4 294/6/4 297/6/4
f 297/4/4 295/4/4 298/4/4
f 299/4/4 300/4/4 301/4/4
f 301/4/4 300/4/4 302/4/4
f 303/1/4 304/1/4 307/1/4
f 307/1/4 304/1/4 308/1/4
f 305/4/4 306/4/4 310/4/4
f 310/4/4 306/4/4 311/4/4
f 309/4/4 310/4/4 312/4/4
f 312/4/4 310/4/4 313/4/4
f 316/4/4 317/4/4 318/4/4
f 318/4/4 317/4/4 319/4/4
f 314/4/4 315/4/4 321/4/4
f 321/4/4 315/4/4 322/4/4
f 320/1/4 321/1/4 324/1/4
f 322/4/4 323/4/4 325/4/4
f 324/1/4 321/1/4 325/1/4
f 321/4/4 322/4/4 325/4/4
f 320/1/4 324/1/4 326/1/4
f 324/6/4 325/6/4 327/6/4
f 326/1/4 324/1/4 327/1/4
f 320/1/4 326/1/4 328/1/4
f 326/6/4 327/6/4 329/6/4
f 328/1/4 326/1/4 329/1/4
f 325/4/4 323/4/4 330/4/4
f 330/4/4 323/4/4 331/4/4
f 328/6/4 329/6/4 334/6/4
f 329/6/4 327/6/4 335/6/4
f 334/6/4 329/6/4 335/6/4
f 327/6/4 325/6/4 335/6/4
f 325/4/4 330/4/4 335/4/4
f 335/4/4 330/4/4 336/4/4
f 332/4/4 333/4/4 337/4/4
f 337/4/4 333/4/4 338/4/4
f 339/4/4 340/4/4 341/4/4
f 341/4/4 340/4/4 342/4/4
f 343/4/4 344/4/4 346/4/4
f 344/4/4 345/4/4 346/4/4
f 346/4/4 345/4/4 347/4/4
f 348/6/4 349/6/4 350/6/4
f 348/6/4 350/6/4 353/6/4
f 350/4/4 351/4/4 354/4/4
f 353/6/4 350/6/4 354/6/4
f 351/2/4 352/2/4 355/2/4
f 354/4/4 351/4/4 355/4/4
f 355/2/4 352/2/4 356/2/4
f 357/2/4 358/2/4 359/2/4
f 359/2/4 358/2/4 360/2/4
f 361/1/4 362/1/4 363/1/4
f 363/1/4 362/1/4 364/1/4
f 367/6/5 366/6/5 365/6/5
f 368/6/5 366/6/5 367/6/5
f 371/6/5 370/6/5 369/6/5
f 372/6/5 370/6/5 371/6/5
f 376/4/5 374/4/5 373/4/5
f 377/4/5 376/4/5 375/4/5
f 378/4/5 374/4/5 376/4/5
f 378/4/5 376/4/5 377/4/5
f 379/4/5 374/4/5 378/4/5
f 380/4/5 374/4/5 379/4/5
f 383/4/5 382/4/5 381/4/5
f 384/4/5 382/4/5 383/4/5
f 389/4/5 386/4/5 385/4/5
f 390/4/5 386/4/5 389/4/5
f 391/4/5 388/4/5 387/4/5
f 392/4/5 388/4/5 391/4/5
f 395/1/5 394/1/5 393/1/5
f 396/1/5 394/1/5 395/1/5
f 397/2/5 396/2/5 395/2/5
f 398/2/5 396/2/5 397/2/5
f 401/2/5 400/2/5 399/2/5
f 402/2/5 400/2/5 401/2/5
f 403/1/5 402/1/5 401/1/5
f 404/1/5 402/1/5 403/1/5
f 407/2/5 406/2/5 405/2/5
f 408/2/5 406/2/5 407/2/5
f 411/2/5 410/2/5 409/2/5
f 412/2/5 410/2/5 411/2/5
f 416/1/5 414/1/5 413/1/5
f 417/6/5 415/6/5 414/6/5
f 417/1/5 414/1/5 416/1/5
f 418/6/5 415/6/5 417/6/5
f 419/1/5 416/1/5 413/1/5
f 420/1/5 416/1/5 419/1/5
f 421/1/5 418/1/5 417/1/5
f 422/1/5 418/1/5 421/1/5
f 423/3/5 420/3/5 419/3/5
f 424/3/5 420/3/5 423/3/5
f 425/6/5 422/6/5 421/6/5
f 426/6/5 422/6/5 425/6/5
f 427/1/5 424/1/5 423/1/5
f 428/1/5 426/1/5 425/1/5
f 429/1/5 426/1/5 428/1/5
f 430/1/5 427/1/5 423/1/5
f 430/1/5 428/1/5 427/1/5
f 431/6/5 429/6/5 428/6/5
f 431/1/5 428/1/5 430/1/5
f 432/6/5 429/6/5 431/6/5
f 435/4/5 434/4/5 433/4/5
f 436/4/5 434/4/5 435/4/5
f 439/4/5 438/4/5 437/4/5
f 440/4/5 438/4/5 439/4/5
f 443/4/5 442/4/5 441/4/5
f 444/4/5 443/4/5 441/4/5
f 445/4/5 444/4/5 441/4/5
f 446/4/5 444/4/5 445/4/5
f 447/6/6 448/6/6 449/6/6
f 449/6/6 448/6/6 450/6/6
f 451/6/6 452/6/6 453/6/6
f 453/6/6 452/6/6 454/6/6
f 455/4/6 456/4/6 457/4/6
f 457/4/6 456/4/6 458/4/6
f 459/4/6 460/4/6 463/4/6
f 459/4/6 463/4/6 464/4/6
f 461/4/6 462/4/6 465/4/6
f 465/4/6 462/4/6 466/4/6
f 459/4/6 464/4/6 467/4/6
f 467/4/6 464/4/6 468/4/6
f 469/4/6 470/4/6 471/4/6
f 471/4/6 470/4/6 472/4/6
f 472/4/6 470/4/6 473/4/6
f 473/4/6 470/4/6 474/4/6
f 475/1/6 476/1/6 477/1/6
f 477/1/6 476/1/6 478/1/6
f 477/2/6 478/2/6 479/2/6
f 479/2/6 478/2/6 480/2/6
f 481/2/6 482/2/6 483/2/6
f 483/2/6 482/2/6 484/2/6
f 483/4/6 484/4/6 485/4/6
f 485/4/6 484/4/6 486/4/6
f 487/4/6 488/4/6 489/4/6
f 489/4/6 488/4/6 490/4/6
f 489/2/6 490/2/6 491/2/6
f 491/2/6 490/2/6 492/2/6
f 493/2/6 494/2/6 495/2/6
f 495/2/6 494/2/6 496/2/6
f 495/1/6 496/1/6 497/1/6
f 497/1/6 496/1/6 498/1/6
f 499/2/6 500/2/6 501/2/6
f 501/2/6 500/2/6 502/2/6
f 503/2/6 504/2/6 505/2/6
f 505/2/6 504/2/6 506/2/6
f 507/4/6 508/4/6 511/4/6
f 511/4/6 508/4/6 512/4/6
f 509/4/6 510/4/6 513/4/6
f 513/4/6 510/4/6 514/4/6
f 515/4/6 516/4/6 519/4/6
f 519/4/6 516/4/6 520/4/6
f 517/4/6 518/4/6 521/4/6
f 521/4/6 518/4/6 522/4/6
f 523/4/6 524/4/6 526/4/6
f 526/4/6 524/4/6 527/4/6
f 527/4/6 524/4/6 528/4/6
f 525/4/6 526/4/6 530/4/6
f 526/4/6 527/4/6 530/4/6
f 530/4/6 527/4/6 531/4/6
f 531/4/6 527/4/6 532/4/6
f 528/4/6 529/4/6 533/4/6
f 533/4/6 529/4/6 534/4/6
f 531/4/6 532/4/6 535/4/6
f 532/4/6 533/4/6 535/4/6
f 535/4/6 533/4/6 536/4/6
f 537/4/6 538/4/6 539/4/6
f 539/4/6 538/4/6 540/4/6
