# MagicaVoxel @ Ephtracy

# material
mtllib FloorFuturistic.mtl
usemtl palette

# normals
vn -1 0 0
vn 1 0 0
vn 0 0 1
vn 0 0 -1
vn 0 -1 0
vn 0 1 0

# texcoords
vt 0.904297 0.5
vt 0.978516 0.5
vt 0.986328 0.5

# verts
v -20 0 20
v -20 0 -20
v -20 1 20
v -20 1 -20
v -20 2 20
v -20 2 -20
v 20 0 20
v 20 0 -20
v 20 1 20
v 20 1 -20
v 20 2 20
v 20 2 -20
v -20 0 20
v -20 1 20
v -20 2 20
v 2 1 20
v 2 2 20
v 3 1 20
v 3 2 20
v 20 0 20
v 20 1 20
v 20 2 20
v -20 0 -20
v -20 1 -20
v -20 2 -20
v 20 0 -20
v 20 1 -20
v 20 2 -20
v -20 0 20
v 20 0 20
v -20 0 -20
v 20 0 -20
v -20 2 20
v 2 2 20
v 3 2 20
v 20 2 20
v 2 2 19
v 3 2 19
v 7 2 19
v 8 2 19
v 7 2 18
v 8 2 18
v 15 2 18
v 16 2 18
v -17 2 17
v -16 2 17
v -12 2 17
v -11 2 17
v 12 2 17
v 15 2 17
v 16 2 17
v -17 2 16
v -16 2 16
v -12 2 16
v -11 2 16
v -6 2 16
v -3 2 16
v 3 2 16
v 4 2 16
v 8 2 16
v 10 2 16
v 12 2 16
v 15 2 16
v -19 2 15
v -18 2 15
v 3 2 15
v 4 2 15
v 8 2 15
v 10 2 15
v -6 2 14
v -3 2 14
v -2 2 14
v -19 2 13
v -18 2 13
v -11 2 13
v -10 2 13
v -8 2 13
v -6 2 13
v -3 2 13
v -2 2 13
v 4 2 13
v 5 2 13
v 13 2 13
v 15 2 13
v -15 2 12
v -14 2 12
v -11 2 12
v -10 2 12
v -8 2 12
v -6 2 12
v 4 2 12
v 5 2 12
v 13 2 12
v 15 2 12
v -18 2 11
v -17 2 11
v -15 2 11
v -14 2 11
v -18 2 10
v -17 2 10
v 15 2 10
v 16 2 10
v -6 2 9
v -4 2 9
v 10 2 9
v 11 2 9
v 15 2 9
v 16 2 9
v -6 2 8
v -4 2 8
v 6 2 8
v 8 2 8
v 10 2 8
v 11 2 8
v -3 2 7
v -2 2 7
v 6 2 7
v 8 2 7
v 12 2 7
v 13 2 7
v -15 2 6
v -14 2 6
v -7 2 6
v -6 2 6
v -3 2 6
v -2 2 6
v 3 2 6
v 4 2 6
v 12 2 6
v 13 2 6
v -15 2 5
v -14 2 5
v -7 2 5
v -6 2 5
v 3 2 5
v 4 2 5
v 11 2 4
v 12 2 4
v -17 2 3
v -16 2 3
v -10 2 3
v -9 2 3
v 11 2 3
v 12 2 3
v -16 2 2
v -15 2 2
v -10 2 2
v -9 2 2
v -17 2 1
v -15 2 1
v -4 2 -0
v -3 2 -0
v 0 2 -0
v 1 2 -0
v 16 2 -0
v 17 2 -0
v -4 2 -1
v -3 2 -1
v 0 2 -1
v 1 2 -1
v 4 2 -1
v 5 2 -1
v 16 2 -1
v 17 2 -1
v -11 2 -2
v -10 2 -2
v 4 2 -2
v 5 2 -2
v 13 2 -2
v 14 2 -2
v -10 2 -3
v -9 2 -3
v 13 2 -3
v 14 2 -3
v -11 2 -4
v -9 2 -4
v -15 2 -5
v -14 2 -5
v -9 2 -5
v -8 2 -5
v 5 2 -5
v 6 2 -5
v 13 2 -5
v 15 2 -5
v -17 2 -6
v -16 2 -6
v -15 2 -6
v -14 2 -6
v -12 2 -6
v -10 2 -6
v -9 2 -6
v -8 2 -6
v -1 2 -6
v 0 2 -6
v 5 2 -6
v 6 2 -6
v 13 2 -6
v 15 2 -6
v -17 2 -7
v -16 2 -7
v -12 2 -7
v -10 2 -7
v -8 2 -7
v -5 2 -7
v -3 2 -7
v -1 2 -7
v 0 2 -7
v -10 2 -8
v -8 2 -8
v -5 2 -8
v -3 2 -8
v -1 2 -8
v 0 2 -8
v 17 2 -8
v 18 2 -8
v -1 2 -9
v 0 2 -9
v 1 2 -9
v 2 2 -9
v 12 2 -9
v 13 2 -9
v 17 2 -9
v 18 2 -9
v 12 2 -10
v 13 2 -10
v 1 2 -11
v 2 2 -11
v 7 2 -11
v 8 2 -11
v 7 2 -12
v 8 2 -12
v -14 2 -13
v -13 2 -13
v 0 2 -13
v 1 2 -13
v -18 2 -14
v -17 2 -14
v -14 2 -14
v -13 2 -14
v -3 2 -14
v -2 2 -14
v 0 2 -14
v 1 2 -14
v 9 2 -14
v 10 2 -14
v -18 2 -15
v -17 2 -15
v -7 2 -15
v -6 2 -15
v -3 2 -15
v -2 2 -15
v 3 2 -15
v 5 2 -15
v -18 2 -16
v -17 2 -16
v -10 2 -16
v -9 2 -16
v -7 2 -16
v -6 2 -16
v 3 2 -16
v 4 2 -16
v 9 2 -16
v 10 2 -16
v -18 2 -17
v -17 2 -17
v -10 2 -17
v -9 2 -17
v 2 2 -17
v 4 2 -17
v 14 2 -17
v 15 2 -17
v 2 2 -18
v 5 2 -18
v 14 2 -18
v 15 2 -18
v -20 2 -20
v 20 2 -20

# faces
f 3/1/1 2/1/1 1/1/1
f 4/1/1 2/1/1 3/1/1
f 5/3/1 4/3/1 3/3/1
f 6/3/1 4/3/1 5/3/1
f 7/1/2 8/1/2 9/1/2
f 9/1/2 8/1/2 10/1/2
f 9/3/2 10/3/2 11/3/2
f 11/3/2 10/3/2 12/3/2
f 16/1/3 14/1/3 13/1/3
f 16/3/3 15/3/3 14/3/3
f 17/3/3 15/3/3 16/3/3
f 18/1/3 16/1/3 13/1/3
f 18/2/3 17/2/3 16/2/3
f 19/2/3 17/2/3 18/2/3
f 20/1/3 18/1/3 13/1/3
f 21/3/3 19/3/3 18/3/3
f 21/1/3 18/1/3 20/1/3
f 22/3/3 19/3/3 21/3/3
f 23/1/4 24/1/4 26/1/4
f 24/3/4 25/3/4 27/3/4
f 26/1/4 24/1/4 27/1/4
f 27/3/4 25/3/4 28/3/4
f 31/1/5 30/1/5 29/1/5
f 32/1/5 30/1/5 31/1/5
f 33/3/6 34/3/6 37/3/6
f 34/2/6 35/2/6 37/2/6
f 35/3/6 36/3/6 38/3/6
f 37/2/6 35/2/6 38/2/6
f 38/3/6 36/3/6 39/3/6
f 39/3/6 36/3/6 40/3/6
f 37/3/6 38/3/6 41/3/6
f 38/3/6 39/3/6 41/3/6
f 39/2/6 40/2/6 41/2/6
f 40/3/6 36/3/6 42/3/6
f 41/2/6 40/2/6 42/2/6
f 42/3/6 36/3/6 43/3/6
f 43/3/6 36/3/6 44/3/6
f 33/3/6 37/3/6 45/3/6
f 37/3/6 41/3/6 45/3/6
f 41/3/6 42/3/6 45/3/6
f 42/3/6 43/3/6 45/3/6
f 45/3/6 43/3/6 46/3/6
f 46/3/6 43/3/6 47/3/6
f 47/3/6 43/3/6 48/3/6
f 48/3/6 43/3/6 49/3/6
f 43/2/6 44/2/6 50/2/6
f 49/3/6 43/3/6 50/3/6
f 44/3/6 36/3/6 51/3/6
f 50/2/6 44/2/6 51/2/6
f 33/3/6 45/3/6 52/3/6
f 45/2/6 46/2/6 52/2/6
f 46/3/6 47/3/6 53/3/6
f 52/2/6 46/2/6 53/2/6
f 47/2/6 48/2/6 54/2/6
f 53/3/6 47/3/6 54/3/6
f 48/3/6 49/3/6 55/3/6
f 54/2/6 48/2/6 55/2/6
f 55/3/6 49/3/6 56/3/6
f 56/3/6 49/3/6 57/3/6
f 57/3/6 49/3/6 58/3/6
f 58/3/6 49/3/6 59/3/6
f 59/3/6 49/3/6 60/3/6
f 60/3/6 49/3/6 61/3/6
f 49/2/6 50/2/6 62/2/6
f 61/3/6 49/3/6 62/3/6
f 50/3/6 51/3/6 63/3/6
f 62/2/6 50/2/6 63/2/6
f 53/3/6 54/3/6 64/3/6
f 33/3/6 52/3/6 64/3/6
f 52/3/6 53/3/6 64/3/6
f 54/3/6 55/3/6 64/3/6
f 55/3/6 56/3/6 64/3/6
f 64/3/6 56/3/6 65/3/6
f 58/2/6 59/2/6 66/2/6
f 57/3/6 58/3/6 66/3/6
f 59/3/6 60/3/6 67/3/6
f 66/2/6 59/2/6 67/2/6
f 60/2/6 61/2/6 68/2/6
f 67/3/6 60/3/6 68/3/6
f 61/3/6 62/3/6 69/3/6
f 68/2/6 61/2/6 69/2/6
f 62/3/6 63/3/6 69/3/6
f 65/3/6 56/3/6 70/3/6
f 56/2/6 57/2/6 70/2/6
f 66/3/6 67/3/6 71/3/6
f 70/2/6 57/2/6 71/2/6
f 67/3/6 68/3/6 71/3/6
f 68/3/6 69/3/6 71/3/6
f 57/3/6 66/3/6 71/3/6
f 71/3/6 69/3/6 72/3/6
f 64/2/6 65/2/6 73/2/6
f 33/3/6 64/3/6 73/3/6
f 65/3/6 70/3/6 74/3/6
f 73/2/6 65/2/6 74/2/6
f 70/3/6 71/3/6 74/3/6
f 74/3/6 71/3/6 75/3/6
f 75/3/6 71/3/6 76/3/6
f 76/3/6 71/3/6 77/3/6
f 77/3/6 71/3/6 78/3/6
f 71/2/6 72/2/6 79/2/6
f 78/3/6 71/3/6 79/3/6
f 72/3/6 69/3/6 80/3/6
f 79/2/6 72/2/6 80/2/6
f 80/3/6 69/3/6 81/3/6
f 81/3/6 69/3/6 82/3/6
f 69/3/6 63/3/6 83/3/6
f 82/3/6 69/3/6 83/3/6
f 63/3/6 51/3/6 84/3/6
f 83/3/6 63/3/6 84/3/6
f 73/3/6 74/3/6 85/3/6
f 74/3/6 75/3/6 85/3/6
f 85/3/6 75/3/6 86/3/6
f 75/2/6 76/2/6 87/2/6
f 86/3/6 75/3/6 87/3/6
f 76/3/6 77/3/6 88/3/6
f 87/2/6 76/2/6 88/2/6
f 77/2/6 78/2/6 89/2/6
f 88/3/6 77/3/6 89/3/6
f 78/3/6 79/3/6 90/3/6
f 89/2/6 78/2/6 90/2/6
f 79/3/6 80/3/6 90/3/6
f 80/3/6 81/3/6 90/3/6
f 81/2/6 82/2/6 91/2/6
f 90/3/6 81/3/6 91/3/6
f 82/3/6 83/3/6 92/3/6
f 91/2/6 82/2/6 92/2/6
f 83/2/6 84/2/6 93/2/6
f 92/3/6 83/3/6 93/3/6
f 84/3/6 51/3/6 94/3/6
f 93/2/6 84/2/6 94/2/6
f 73/3/6 85/3/6 95/3/6
f 95/3/6 85/3/6 96/3/6
f 85/2/6 86/2/6 97/2/6
f 96/3/6 85/3/6 97/3/6
f 90/3/6 91/3/6 98/3/6
f 97/2/6 86/2/6 98/2/6
f 88/3/6 89/3/6 98/3/6
f 87/3/6 88/3/6 98/3/6
f 93/3/6 94/3/6 98/3/6
f 89/3/6 90/3/6 98/3/6
f 86/3/6 87/3/6 98/3/6
f 92/3/6 93/3/6 98/3/6
f 91/3/6 92/3/6 98/3/6
f 73/3/6 95/3/6 99/3/6
f 95/2/6 96/2/6 99/2/6
f 96/3/6 97/3/6 100/3/6
f 99/2/6 96/2/6 100/2/6
f 97/3/6 98/3/6 100/3/6
f 98/3/6 94/3/6 101/3/6
f 100/3/6 98/3/6 101/3/6
f 94/3/6 51/3/6 101/3/6
f 51/3/6 36/3/6 102/3/6
f 101/3/6 51/3/6 102/3/6
f 100/3/6 101/3/6 103/3/6
f 99/3/6 100/3/6 103/3/6
f 103/3/6 101/3/6 104/3/6
f 104/3/6 101/3/6 105/3/6
f 105/3/6 101/3/6 106/3/6
f 101/2/6 102/2/6 107/2/6
f 106/3/6 101/3/6 107/3/6
f 102/3/6 36/3/6 108/3/6
f 107/2/6 102/2/6 108/2/6
f 99/3/6 103/3/6 109/3/6
f 103/2/6 104/2/6 109/2/6
f 104/3/6 105/3/6 110/3/6
f 109/2/6 104/2/6 110/2/6
f 110/3/6 105/3/6 111/3/6
f 111/3/6 105/3/6 112/3/6
f 105/2/6 106/2/6 113/2/6
f 112/3/6 105/3/6 113/3/6
f 106/3/6 107/3/6 114/3/6
f 113/2/6 106/2/6 114/2/6
f 107/3/6 108/3/6 114/3/6
f 110/3/6 111/3/6 115/3/6
f 109/3/6 110/3/6 115/3/6
f 115/3/6 111/3/6 116/3/6
f 111/2/6 112/2/6 117/2/6
f 116/3/6 111/3/6 117/3/6
f 112/3/6 113/3/6 118/3/6
f 117/2/6 112/2/6 118/2/6
f 113/3/6 114/3/6 118/3/6
f 114/3/6 108/3/6 119/3/6
f 118/3/6 114/3/6 119/3/6
f 119/3/6 108/3/6 120/3/6
f 99/3/6 109/3/6 121/3/6
f 109/3/6 115/3/6 121/3/6
f 121/3/6 115/3/6 122/3/6
f 122/3/6 115/3/6 123/3/6
f 123/3/6 115/3/6 124/3/6
f 115/2/6 116/2/6 125/2/6
f 124/3/6 115/3/6 125/3/6
f 116/3/6 117/3/6 126/3/6
f 125/2/6 116/2/6 126/2/6
f 117/3/6 118/3/6 126/3/6
f 118/3/6 119/3/6 126/3/6
f 126/3/6 119/3/6 127/3/6
f 127/3/6 119/3/6 128/3/6
f 119/2/6 120/2/6 129/2/6
f 128/3/6 119/3/6 129/3/6
f 120/3/6 108/3/6 130/3/6
f 129/2/6 120/2/6 130/2/6
f 121/2/6 122/2/6 131/2/6
f 99/3/6 121/3/6 131/3/6
f 122/3/6 123/3/6 132/3/6
f 131/2/6 122/2/6 132/2/6
f 123/2/6 124/2/6 133/2/6
f 132/3/6 123/3/6 133/3/6
f 124/3/6 125/3/6 134/3/6
f 133/2/6 124/2/6 134/2/6
f 125/3/6 126/3/6 134/3/6
f 126/3/6 127/3/6 134/3/6
f 127/2/6 128/2/6 135/2/6
f 134/3/6 127/3/6 135/3/6
f 128/3/6 129/3/6 136/3/6
f 135/2/6 128/2/6 136/2/6
f 129/3/6 130/3/6 136/3/6
f 132/3/6 133/3/6 137/3/6
f 136/3/6 130/3/6 137/3/6
f 135/3/6 136/3/6 137/3/6
f 131/3/6 132/3/6 137/3/6
f 133/3/6 134/3/6 137/3/6
f 134/3/6 135/3/6 137/3/6
f 137/3/6 130/3/6 138/3/6
f 99/3/6 131/3/6 139/3/6
f 131/3/6 137/3/6 139/3/6
f 139/3/6 137/3/6 140/3/6
f 140/3/6 137/3/6 141/3/6
f 141/3/6 137/3/6 142/3/6
f 137/2/6 138/2/6 143/2/6
f 142/3/6 137/3/6 143/3/6
f 138/3/6 130/3/6 144/3/6
f 143/2/6 138/2/6 144/2/6
f 139/2/6 140/2/6 145/2/6
f 140/3/6 141/3/6 145/3/6
f 145/3/6 141/3/6 146/3/6
f 141/2/6 142/2/6 147/2/6
f 146/3/6 141/3/6 147/3/6
f 142/3/6 143/3/6 148/3/6
f 147/2/6 142/2/6 148/2/6
f 143/3/6 144/3/6 148/3/6
f 145/2/6 146/2/6 149/2/6
f 99/3/6 139/3/6 149/3/6
f 139/2/6 145/2/6 149/2/6
f 146/3/6 147/3/6 150/3/6
f 149/2/6 146/2/6 150/2/6
f 147/3/6 148/3/6 150/3/6
f 148/3/6 144/3/6 151/3/6
f 150/3/6 148/3/6 151/3/6
f 149/3/6 150/3/6 151/3/6
f 151/3/6 144/3/6 152/3/6
f 152/3/6 144/3/6 153/3/6
f 153/3/6 144/3/6 154/3/6
f 130/3/6 108/3/6 155/3/6
f 154/3/6 144/3/6 155/3/6
f 108/3/6 36/3/6 155/3/6
f 144/3/6 130/3/6 155/3/6
f 155/3/6 36/3/6 156/3/6
f 151/2/6 152/2/6 157/2/6
f 149/3/6 151/3/6 157/3/6
f 152/3/6 153/3/6 158/3/6
f 157/2/6 152/2/6 158/2/6
f 153/2/6 154/2/6 159/2/6
f 158/3/6 153/3/6 159/3/6
f 154/3/6 155/3/6 160/3/6
f 159/2/6 154/2/6 160/2/6
f 160/3/6 155/3/6 161/3/6
f 161/3/6 155/3/6 162/3/6
f 155/2/6 156/2/6 163/2/6
f 162/3/6 155/3/6 163/3/6
f 156/3/6 36/3/6 164/3/6
f 163/2/6 156/2/6 164/2/6
f 157/3/6 158/3/6 165/3/6
f 149/3/6 157/3/6 165/3/6
f 158/3/6 159/3/6 165/3/6
f 160/3/6 161/3/6 165/3/6
f 159/3/6 160/3/6 165/3/6
f 165/3/6 161/3/6 166/3/6
f 161/2/6 162/2/6 167/2/6
f 166/3/6 161/3/6 167/3/6
f 163/3/6 164/3/6 168/3/6
f 167/2/6 162/2/6 168/2/6
f 162/3/6 163/3/6 168/3/6
f 168/3/6 164/3/6 169/3/6
f 169/3/6 164/3/6 170/3/6
f 166/3/6 167/3/6 171/3/6
f 165/2/6 166/2/6 171/2/6
f 167/3/6 168/3/6 171/3/6
f 168/3/6 169/3/6 171/3/6
f 171/3/6 169/3/6 172/3/6
f 169/2/6 170/2/6 173/2/6
f 172/3/6 169/3/6 173/3/6
f 170/3/6 164/3/6 174/3/6
f 173/2/6 170/2/6 174/2/6
f 149/3/6 165/3/6 175/3/6
f 171/2/6 172/2/6 175/2/6
f 165/2/6 171/2/6 175/2/6
f 172/3/6 173/3/6 176/3/6
f 175/2/6 172/2/6 176/2/6
f 173/3/6 174/3/6 176/3/6
f 149/3/6 175/3/6 177/3/6
f 175/3/6 176/3/6 177/3/6
f 177/3/6 176/3/6 178/3/6
f 176/3/6 174/3/6 179/3/6
f 178/3/6 176/3/6 179/3/6
f 179/3/6 174/3/6 180/3/6
f 180/3/6 174/3/6 181/3/6
f 181/3/6 174/3/6 182/3/6
f 182/3/6 174/3/6 183/3/6
f 174/3/6 164/3/6 184/3/6
f 183/3/6 174/3/6 184/3/6
f 99/3/6 149/3/6 185/3/6
f 149/3/6 177/3/6 185/3/6
f 185/3/6 177/3/6 186/3/6
f 177/2/6 178/2/6 187/2/6
f 186/3/6 177/3/6 187/3/6
f 178/3/6 179/3/6 188/3/6
f 187/2/6 178/2/6 188/2/6
f 188/3/6 179/3/6 189/3/6
f 189/3/6 179/3/6 190/3/6
f 179/2/6 180/2/6 191/2/6
f 190/3/6 179/3/6 191/3/6
f 180/3/6 181/3/6 192/3/6
f 191/2/6 180/2/6 192/2/6
f 192/3/6 181/3/6 193/3/6
f 193/3/6 181/3/6 194/3/6
f 181/2/6 182/2/6 195/2/6
f 194/3/6 181/3/6 195/3/6
f 182/3/6 183/3/6 196/3/6
f 195/2/6 182/2/6 196/2/6
f 183/2/6 184/2/6 197/2/6
f 196/3/6 183/3/6 197/3/6
f 184/3/6 164/3/6 198/3/6
f 197/2/6 184/2/6 198/2/6
f 185/2/6 186/2/6 199/2/6
f 99/3/6 185/3/6 199/3/6
f 186/3/6 187/3/6 200/3/6
f 199/2/6 186/2/6 200/2/6
f 187/3/6 188/3/6 200/3/6
f 188/3/6 189/3/6 200/3/6
f 189/2/6 190/2/6 201/2/6
f 200/3/6 189/3/6 201/3/6
f 190/3/6 191/3/6 202/3/6
f 201/2/6 190/2/6 202/2/6
f 192/3/6 193/3/6 202/3/6
f 191/3/6 192/3/6 202/3/6
f 202/3/6 193/3/6 203/3/6
f 203/3/6 193/3/6 204/3/6
f 204/3/6 193/3/6 205/3/6
f 193/2/6 194/2/6 206/2/6
f 205/3/6 193/3/6 206/3/6
f 196/3/6 197/3/6 207/3/6
f 206/2/6 194/2/6 207/2/6
f 194/3/6 195/3/6 207/3/6
f 195/3/6 196/3/6 207/3/6
f 197/3/6 198/3/6 207/3/6
f 202/2/6 203/2/6 208/2/6
f 199/3/6 200/3/6 208/3/6
f 200/3/6 201/3/6 208/3/6
f 201/3/6 202/3/6 208/3/6
f 203/3/6 204/3/6 209/3/6
f 208/2/6 203/2/6 209/2/6
f 204/2/6 205/2/6 210/2/6
f 209/3/6 204/3/6 210/3/6
f 205/3/6 206/3/6 211/3/6
f 210/2/6 205/2/6 211/2/6
f 206/3/6 207/3/6 211/3/6
f 211/3/6 207/3/6 212/3/6
f 207/3/6 198/3/6 213/3/6
f 212/3/6 207/3/6 213/3/6
f 164/3/6 36/3/6 214/3/6
f 213/3/6 198/3/6 214/3/6
f 198/3/6 164/3/6 214/3/6
f 214/3/6 36/3/6 215/3/6
f 212/2/6 213/2/6 216/2/6
f 209/3/6 210/3/6 216/3/6
f 210/3/6 211/3/6 216/3/6
f 211/3/6 212/3/6 216/3/6
f 208/3/6 209/3/6 216/3/6
f 213/3/6 214/3/6 217/3/6
f 216/2/6 213/2/6 217/2/6
f 217/3/6 214/3/6 218/3/6
f 218/3/6 214/3/6 219/3/6
f 219/3/6 214/3/6 220/3/6
f 220/3/6 214/3/6 221/3/6
f 214/2/6 215/2/6 222/2/6
f 221/3/6 214/3/6 222/3/6
f 215/3/6 36/3/6 223/3/6
f 222/2/6 215/2/6 223/2/6
f 220/2/6 221/2/6 224/2/6
f 219/3/6 220/3/6 224/3/6
f 221/3/6 222/3/6 225/3/6
f 224/2/6 221/2/6 225/2/6
f 222/3/6 223/3/6 225/3/6
f 216/3/6 217/3/6 226/3/6
f 217/3/6 218/3/6 226/3/6
f 218/2/6 219/2/6 226/2/6
f 219/3/6 224/3/6 227/3/6
f 226/2/6 219/2/6 227/2/6
f 224/3/6 225/3/6 227/3/6
f 227/3/6 225/3/6 228/3/6
f 228/3/6 225/3/6 229/3/6
f 226/3/6 227/3/6 230/3/6
f 227/3/6 228/3/6 230/3/6
f 228/2/6 229/2/6 230/2/6
f 229/3/6 225/3/6 231/3/6
f 230/2/6 229/2/6 231/2/6
f 216/3/6 226/3/6 232/3/6
f 208/3/6 216/3/6 232/3/6
f 230/3/6 231/3/6 232/3/6
f 226/3/6 230/3/6 232/3/6
f 199/3/6 208/3/6 232/3/6
f 232/3/6 231/3/6 233/3/6
f 233/3/6 231/3/6 234/3/6
f 234/3/6 231/3/6 235/3/6
f 73/3/6 99/3/6 236/3/6
f 99/3/6 199/3/6 236/3/6
f 199/3/6 232/3/6 236/3/6
f 236/3/6 232/3/6 237/3/6
f 232/2/6 233/2/6 238/2/6
f 237/3/6 232/3/6 238/3/6
f 233/3/6 234/3/6 239/3/6
f 238/2/6 233/2/6 239/2/6
f 239/3/6 234/3/6 240/3/6
f 240/3/6 234/3/6 241/3/6
f 234/2/6 235/2/6 242/2/6
f 241/3/6 234/3/6 242/3/6
f 235/3/6 231/3/6 243/3/6
f 242/2/6 235/2/6 243/2/6
f 231/3/6 225/3/6 244/3/6
f 243/3/6 231/3/6 244/3/6
f 244/3/6 225/3/6 245/3/6
f 236/2/6 237/2/6 246/2/6
f 73/3/6 236/3/6 246/3/6
f 237/3/6 238/3/6 247/3/6
f 246/2/6 237/2/6 247/2/6
f 238/3/6 239/3/6 247/3/6
f 239/3/6 240/3/6 247/3/6
f 247/3/6 240/3/6 248/3/6
f 248/3/6 240/3/6 249/3/6
f 240/2/6 241/2/6 250/2/6
f 249/3/6 240/3/6 250/3/6
f 241/3/6 242/3/6 251/3/6
f 250/2/6 241/2/6 251/2/6
f 242/3/6 243/3/6 251/3/6
f 243/3/6 244/3/6 251/3/6
f 251/3/6 244/3/6 252/3/6
f 252/3/6 244/3/6 253/3/6
f 247/3/6 248/3/6 254/3/6
f 73/3/6 246/3/6 254/3/6
f 246/3/6 247/3/6 254/3/6
f 254/3/6 248/3/6 255/3/6
f 255/3/6 248/3/6 256/3/6
f 256/3/6 248/3/6 257/3/6
f 248/2/6 249/2/6 258/2/6
f 257/3/6 248/3/6 258/3/6
f 249/3/6 250/3/6 259/3/6
f 258/2/6 249/2/6 259/2/6
f 251/3/6 252/3/6 259/3/6
f 250/3/6 251/3/6 259/3/6
f 252/2/6 253/2/6 260/2/6
f 259/3/6 252/3/6 260/3/6
f 260/2/6 253/2/6 261/2/6
f 253/3/6 244/3/6 262/3/6
f 244/2/6 245/2/6 262/2/6
f 245/3/6 225/3/6 263/3/6
f 262/2/6 245/2/6 263/2/6
f 254/2/6 255/2/6 264/2/6
f 73/3/6 254/3/6 264/3/6
f 255/3/6 256/3/6 265/3/6
f 264/2/6 255/2/6 265/2/6
f 256/2/6 257/2/6 266/2/6
f 265/3/6 256/3/6 266/3/6
f 257/3/6 258/3/6 267/3/6
f 266/2/6 257/2/6 267/2/6
f 258/3/6 259/3/6 267/3/6
f 259/3/6 260/3/6 267/3/6
f 260/3/6 261/3/6 267/3/6
f 267/3/6 261/3/6 268/3/6
f 261/2/6 253/2/6 269/2/6
f 268/3/6 261/3/6 269/3/6
f 225/3/6 223/3/6 270/3/6
f 262/3/6 263/3/6 270/3/6
f 263/3/6 225/3/6 270/3/6
f 270/3/6 223/3/6 271/3/6
f 265/3/6 266/3/6 272/3/6
f 267/3/6 268/3/6 272/3/6
f 264/3/6 265/3/6 272/3/6
f 268/2/6 269/2/6 272/2/6
f 266/3/6 267/3/6 272/3/6
f 269/2/6 253/2/6 273/2/6
f 272/2/6 269/2/6 273/2/6
f 262/3/6 270/3/6 273/3/6
f 253/3/6 262/3/6 273/3/6
f 270/2/6 271/2/6 274/2/6
f 273/3/6 270/3/6 274/3/6
f 271/3/6 223/3/6 275/3/6
f 274/2/6 271/2/6 275/2/6
f 33/3/6 73/3/6 276/3/6
f 273/3/6 274/3/6 276/3/6
f 274/3/6 275/3/6 276/3/6
f 73/3/6 264/3/6 276/3/6
f 264/3/6 272/3/6 276/3/6
f 272/3/6 273/3/6 276/3/6
f 275/3/6 223/3/6 277/3/6
f 276/3/6 275/3/6 277/3/6
f 223/3/6 36/3/6 277/3/6
