# MagicaVoxel @ Ephtracy

# group
g PlaceholderEnemy

# material
mtllib PlaceholderEnemy.mtl
usemtl palette

# normals
vn -1 0 0
vn 1 0 0
vn 0 0 1
vn 0 0 -1
vn 0 -1 0
vn 0 1 0

# texcoords
vt 0.0175781 0.5
vt 0.373047 0.5
vt 0.775391 0.5
vt 0.958984 0.5
vt 0.990234 0.5
vt 0.994141 0.5

# verts
v -5 12 3
v -5 12 -0
v -5 14 3
v -5 14 -0
v 0 14 3
v 0 14 -0
v 0 15 3
v 0 15 -0
v 1 0 3
v 1 0 -2
v 1 1 3
v 1 1 -0
v 1 1 -2
v 1 8 3
v 1 8 -0
v 1 13 3
v 1 13 -0
v 2 15 4
v 2 15 -1
v 2 18 3
v 2 18 -0
v 2 19 3
v 2 19 -0
v 2 20 4
v 2 20 -1
v 3 14 3
v 3 14 -0
v 3 15 3
v 3 15 -0
v 3 15 -1
v 3 15 -2
v 3 17 -1
v 3 17 -2
v 3 20 3
v 3 20 2
v 3 20 1
v 3 20 -0
v 3 21 3
v 3 21 2
v 3 21 1
v 3 21 -0
v 6 0 3
v 6 0 -2
v 6 1 3
v 6 1 -0
v 6 1 -2
v 6 6 3
v 6 6 -0
v 9 14 3
v 9 14 -0
v 9 15 3
v 9 15 -0
v 10 12 3
v 10 12 -0
v 10 13 3
v 10 13 -0
v 0 12 3
v 0 12 -0
v 0 13 3
v 0 13 -0
v 1 14 3
v 1 14 -0
v 1 15 3
v 1 15 -0
v 4 0 3
v 4 0 -2
v 4 1 3
v 4 1 -0
v 4 1 -2
v 4 6 3
v 4 6 -0
v 7 14 3
v 7 14 -0
v 7 15 3
v 7 15 -0
v 7 15 -1
v 7 15 -2
v 7 17 -1
v 7 17 -2
v 7 20 3
v 7 20 2
v 7 20 1
v 7 20 -0
v 7 21 3
v 7 21 2
v 7 21 1
v 7 21 -0
v 8 15 4
v 8 15 -1
v 8 18 3
v 8 18 -0
v 8 19 3
v 8 19 -0
v 8 20 4
v 8 20 -1
v 9 0 3
v 9 0 -2
v 9 1 3
v 9 1 -0
v 9 1 -2
v 9 8 3
v 9 8 -0
v 9 13 3
v 9 13 -0
v 10 14 3
v 10 14 -0
v 10 15 3
v 10 15 -0
v 15 12 3
v 15 12 -0
v 15 14 3
v 15 14 -0
v 2 15 4
v 2 20 4
v 8 15 4
v 8 20 4
v -5 12 3
v -5 14 3
v -1 12 3
v -1 14 3
v 0 12 3
v 0 13 3
v 0 14 3
v 0 15 3
v 1 0 3
v 1 1 3
v 1 8 3
v 1 13 3
v 1 14 3
v 1 15 3
v 3 14 3
v 3 15 3
v 3 20 3
v 3 21 3
v 4 0 3
v 4 1 3
v 4 6 3
v 6 0 3
v 6 1 3
v 6 6 3
v 7 14 3
v 7 15 3
v 7 20 3
v 7 21 3
v 9 0 3
v 9 1 3
v 9 8 3
v 9 13 3
v 9 14 3
v 9 15 3
v 10 12 3
v 10 13 3
v 10 14 3
v 10 15 3
v 11 12 3
v 11 14 3
v 15 12 3
v 15 14 3
v 3 20 1
v 3 21 1
v 7 20 1
v 7 21 1
v 3 20 2
v 3 21 2
v 7 20 2
v 7 21 2
v -5 12 -0
v -5 14 -0
v -1 12 -0
v -1 14 -0
v 0 12 -0
v 0 13 -0
v 0 14 -0
v 0 15 -0
v 1 1 -0
v 1 8 -0
v 1 13 -0
v 1 14 -0
v 1 15 -0
v 3 13 -0
v 3 14 -0
v 3 15 -0
v 3 20 -0
v 3 21 -0
v 4 1 -0
v 4 6 -0
v 4 20 -0
v 6 1 -0
v 6 6 -0
v 6 20 -0
v 7 13 -0
v 7 14 -0
v 7 15 -0
v 7 20 -0
v 7 21 -0
v 9 1 -0
v 9 8 -0
v 9 13 -0
v 9 14 -0
v 9 15 -0
v 10 12 -0
v 10 13 -0
v 10 14 -0
v 10 15 -0
v 11 12 -0
v 11 14 -0
v 15 12 -0
v 15 14 -0
v 2 15 -1
v 2 20 -1
v 3 15 -1
v 3 17 -1
v 3 18 -1
v 3 19 -1
v 3 20 -1
v 4 18 -1
v 4 19 -1
v 4 20 -1
v 6 18 -1
v 6 19 -1
v 6 20 -1
v 7 15 -1
v 7 17 -1
v 7 18 -1
v 7 19 -1
v 7 20 -1
v 8 15 -1
v 8 20 -1
v 1 0 -2
v 1 1 -2
v 3 15 -2
v 3 17 -2
v 4 0 -2
v 4 1 -2
v 6 0 -2
v 6 1 -2
v 7 15 -2
v 7 17 -2
v 9 0 -2
v 9 1 -2
v 1 0 3
v 4 0 3
v 6 0 3
v 9 0 3
v 1 0 -2
v 4 0 -2
v 6 0 -2
v 9 0 -2
v 4 6 3
v 6 6 3
v 4 6 -0
v 6 6 -0
v -5 12 3
v -1 12 3
v 0 12 3
v 10 12 3
v 11 12 3
v 15 12 3
v -5 12 -0
v -1 12 -0
v 0 12 -0
v 10 12 -0
v 11 12 -0
v 15 12 -0
v 0 13 3
v 1 13 3
v 9 13 3
v 10 13 3
v 0 13 -0
v 1 13 -0
v 9 13 -0
v 10 13 -0
v 2 15 4
v 8 15 4
v 3 15 3
v 7 15 3
v 3 15 -0
v 7 15 -0
v 2 15 -1
v 3 15 -1
v 7 15 -1
v 8 15 -1
v 3 15 -2
v 7 15 -2
v 1 1 -0
v 4 1 -0
v 6 1 -0
v 9 1 -0
v 1 1 -2
v 4 1 -2
v 6 1 -2
v 9 1 -2
v -5 14 3
v -1 14 3
v 0 14 3
v 1 14 3
v 3 14 3
v 7 14 3
v 9 14 3
v 10 14 3
v 11 14 3
v 15 14 3
v -5 14 -0
v -1 14 -0
v 0 14 -0
v 1 14 -0
v 3 14 -0
v 7 14 -0
v 9 14 -0
v 10 14 -0
v 11 14 -0
v 15 14 -0
v 0 15 3
v 1 15 3
v 9 15 3
v 10 15 3
v 0 15 -0
v 1 15 -0
v 9 15 -0
v 10 15 -0
v 3 17 -1
v 7 17 -1
v 3 17 -2
v 7 17 -2
v 2 20 4
v 8 20 4
v 3 20 3
v 7 20 3
v 3 20 2
v 7 20 2
v 3 20 1
v 7 20 1
v 3 20 -0
v 4 20 -0
v 6 20 -0
v 7 20 -0
v 2 20 -1
v 3 20 -1
v 4 20 -1
v 6 20 -1
v 7 20 -1
v 8 20 -1
v 3 21 3
v 7 21 3
v 3 21 2
v 7 21 2
v 3 21 1
v 7 21 1
v 3 21 -0
v 7 21 -0

# faces
f 3/1/1 2/1/1 1/1/1
f 4/1/1 2/1/1 3/1/1
f 7/4/1 6/4/1 5/4/1
f 8/4/1 6/4/1 7/4/1
f 11/6/1 10/6/1 9/6/1
f 12/6/1 10/6/1 11/6/1
f 13/6/1 10/6/1 12/6/1
f 14/3/1 12/3/1 11/3/1
f 15/3/1 12/3/1 14/3/1
f 16/4/1 15/4/1 14/4/1
f 17/4/1 15/4/1 16/4/1
f 20/1/1 19/1/1 18/1/1
f 21/1/1 19/1/1 20/1/1
f 22/1/1 20/1/1 18/1/1
f 22/5/1 21/5/1 20/5/1
f 23/1/1 19/1/1 21/1/1
f 23/5/1 21/5/1 22/5/1
f 24/1/1 22/1/1 18/1/1
f 24/1/1 23/1/1 22/1/1
f 25/1/1 19/1/1 23/1/1
f 25/1/1 23/1/1 24/1/1
f 28/1/1 27/1/1 26/1/1
f 29/1/1 27/1/1 28/1/1
f 32/2/1 31/2/1 30/2/1
f 33/2/1 31/2/1 32/2/1
f 38/5/1 35/5/1 34/5/1
f 39/5/1 35/5/1 38/5/1
f 40/5/1 37/5/1 36/5/1
f 41/5/1 37/5/1 40/5/1
f 44/6/1 43/6/1 42/6/1
f 45/6/1 43/6/1 44/6/1
f 46/6/1 43/6/1 45/6/1
f 47/3/1 45/3/1 44/3/1
f 48/3/1 45/3/1 47/3/1
f 51/4/1 50/4/1 49/4/1
f 52/4/1 50/4/1 51/4/1
f 55/4/1 54/4/1 53/4/1
f 56/4/1 54/4/1 55/4/1
f 57/4/2 58/4/2 59/4/2
f 59/4/2 58/4/2 60/4/2
f 61/4/2 62/4/2 63/4/2
f 63/4/2 62/4/2 64/4/2
f 65/6/2 66/6/2 67/6/2
f 67/6/2 66/6/2 68/6/2
f 68/6/2 66/6/2 69/6/2
f 67/3/2 68/3/2 70/3/2
f 70/3/2 68/3/2 71/3/2
f 72/1/2 73/1/2 74/1/2
f 74/1/2 73/1/2 75/1/2
f 76/2/2 77/2/2 78/2/2
f 78/2/2 77/2/2 79/2/2
f 80/5/2 81/5/2 84/5/2
f 84/5/2 81/5/2 85/5/2
f 82/5/2 83/5/2 86/5/2
f 86/5/2 83/5/2 87/5/2
f 88/1/2 89/1/2 90/1/2
f 90/1/2 89/1/2 91/1/2
f 88/1/2 90/1/2 92/1/2
f 90/5/2 91/5/2 92/5/2
f 91/1/2 89/1/2 93/1/2
f 92/5/2 91/5/2 93/5/2
f 88/1/2 92/1/2 94/1/2
f 92/1/2 93/1/2 94/1/2
f 93/1/2 89/1/2 95/1/2
f 94/1/2 93/1/2 95/1/2
f 96/6/2 97/6/2 98/6/2
f 98/6/2 97/6/2 99/6/2
f 99/6/2 97/6/2 100/6/2
f 98/3/2 99/3/2 101/3/2
f 101/3/2 99/3/2 102/3/2
f 101/4/2 102/4/2 103/4/2
f 103/4/2 102/4/2 104/4/2
f 105/4/2 106/4/2 107/4/2
f 107/4/2 106/4/2 108/4/2
f 109/1/2 110/1/2 111/1/2
f 111/1/2 110/1/2 112/1/2
f 115/1/3 114/1/3 113/1/3
f 116/1/3 114/1/3 115/1/3
f 119/1/3 118/1/3 117/1/3
f 120/1/3 118/1/3 119/1/3
f 121/4/3 120/4/3 119/4/3
f 122/4/3 120/4/3 121/4/3
f 123/4/3 120/4/3 122/4/3
f 128/4/3 123/4/3 122/4/3
f 128/4/3 124/4/3 123/4/3
f 129/4/3 124/4/3 128/4/3
f 130/4/3 124/4/3 129/4/3
f 131/4/3 128/4/3 127/4/3
f 131/4/3 129/4/3 128/4/3
f 135/6/3 126/6/3 125/6/3
f 136/3/3 127/3/3 126/3/3
f 136/6/3 126/6/3 135/6/3
f 137/3/3 127/3/3 136/3/3
f 140/3/3 127/3/3 137/3/3
f 141/1/3 132/1/3 131/1/3
f 141/4/3 131/4/3 127/4/3
f 142/1/3 132/1/3 141/1/3
f 143/5/3 134/5/3 133/5/3
f 144/5/3 134/5/3 143/5/3
f 145/6/3 139/6/3 138/6/3
f 146/3/3 140/3/3 139/3/3
f 146/6/3 139/6/3 145/6/3
f 147/3/3 127/3/3 140/3/3
f 147/3/3 140/3/3 146/3/3
f 147/4/3 141/4/3 127/4/3
f 148/4/3 141/4/3 147/4/3
f 149/4/3 141/4/3 148/4/3
f 152/4/3 150/4/3 149/4/3
f 152/4/3 149/4/3 148/4/3
f 153/4/3 150/4/3 152/4/3
f 154/4/3 150/4/3 153/4/3
f 155/4/3 152/4/3 151/4/3
f 155/4/3 153/4/3 152/4/3
f 156/4/3 153/4/3 155/4/3
f 157/1/3 156/1/3 155/1/3
f 158/1/3 156/1/3 157/1/3
f 161/5/3 160/5/3 159/5/3
f 162/5/3 160/5/3 161/5/3
f 163/5/4 164/5/4 165/5/4
f 165/5/4 164/5/4 166/5/4
f 167/1/4 168/1/4 169/1/4
f 169/1/4 168/1/4 170/1/4
f 169/4/4 170/4/4 171/4/4
f 171/4/4 170/4/4 172/4/4
f 172/4/4 170/4/4 173/4/4
f 172/4/4 173/4/4 177/4/4
f 173/4/4 174/4/4 177/4/4
f 177/4/4 174/4/4 178/4/4
f 178/4/4 174/4/4 179/4/4
f 176/4/4 177/4/4 180/4/4
f 177/4/4 178/4/4 180/4/4
f 180/4/4 178/4/4 181/4/4
f 175/3/4 176/3/4 185/3/4
f 185/3/4 176/3/4 186/3/4
f 183/5/4 184/5/4 187/5/4
f 186/3/4 176/3/4 189/3/4
f 187/5/4 184/5/4 190/5/4
f 181/1/4 182/1/4 191/1/4
f 176/4/4 180/4/4 191/4/4
f 180/1/4 181/1/4 191/1/4
f 191/1/4 182/1/4 192/1/4
f 192/1/4 182/1/4 193/1/4
f 190/5/4 184/5/4 194/5/4
f 194/5/4 184/5/4 195/5/4
f 188/3/4 189/3/4 196/3/4
f 189/3/4 176/3/4 197/3/4
f 196/3/4 189/3/4 197/3/4
f 176/4/4 191/4/4 197/4/4
f 191/4/4 192/4/4 197/4/4
f 197/4/4 192/4/4 198/4/4
f 198/4/4 192/4/4 199/4/4
f 199/4/4 200/4/4 202/4/4
f 198/4/4 199/4/4 202/4/4
f 202/4/4 200/4/4 203/4/4
f 203/4/4 200/4/4 204/4/4
f 201/4/4 202/4/4 205/4/4
f 202/4/4 203/4/4 205/4/4
f 205/4/4 203/4/4 206/4/4
f 205/1/4 206/1/4 207/1/4
f 207/1/4 206/1/4 208/1/4
f 209/1/4 210/1/4 211/1/4
f 211/1/4 210/1/4 212/1/4
f 212/1/4 210/1/4 213/1/4
f 213/1/4 210/1/4 214/1/4
f 214/1/4 210/1/4 215/1/4
f 212/1/4 213/1/4 216/1/4
f 213/6/4 214/6/4 216/6/4
f 214/4/4 215/4/4 217/4/4
f 216/6/4 214/6/4 217/6/4
f 217/4/4 215/4/4 218/4/4
f 212/1/4 216/1/4 219/1/4
f 216/1/4 217/1/4 219/1/4
f 217/1/4 218/1/4 219/1/4
f 219/1/4 218/1/4 220/1/4
f 220/1/4 218/1/4 221/1/4
f 212/1/4 219/1/4 223/1/4
f 219/6/4 220/6/4 224/6/4
f 223/1/4 219/1/4 224/1/4
f 220/4/4 221/4/4 225/4/4
f 224/6/4 220/6/4 225/6/4
f 225/4/4 221/4/4 226/4/4
f 222/1/4 223/1/4 227/1/4
f 223/1/4 224/1/4 227/1/4
f 225/1/4 226/1/4 227/1/4
f 224/1/4 225/1/4 227/1/4
f 227/1/4 226/1/4 228/1/4
f 229/6/4 230/6/4 233/6/4
f 233/6/4 230/6/4 234/6/4
f 231/2/4 232/2/4 237/2/4
f 237/2/4 232/2/4 238/2/4
f 235/6/4 236/6/4 239/6/4
f 239/6/4 236/6/4 240/6/4
f 245/6/5 242/6/5 241/6/5
f 246/6/5 242/6/5 245/6/5
f 247/6/5 244/6/5 243/6/5
f 248/6/5 244/6/5 247/6/5
f 251/3/5 250/3/5 249/3/5
f 252/3/5 250/3/5 251/3/5
f 259/1/5 254/1/5 253/1/5
f 260/4/5 255/4/5 254/4/5
f 260/1/5 254/1/5 259/1/5
f 261/4/5 255/4/5 260/4/5
f 262/4/5 257/4/5 256/4/5
f 263/1/5 258/1/5 257/1/5
f 263/4/5 257/4/5 262/4/5
f 264/1/5 258/1/5 263/1/5
f 269/4/5 266/4/5 265/4/5
f 270/4/5 266/4/5 269/4/5
f 271/4/5 268/4/5 267/4/5
f 272/4/5 268/4/5 271/4/5
f 275/1/5 274/1/5 273/1/5
f 276/1/5 274/1/5 275/1/5
f 277/1/5 275/1/5 273/1/5
f 278/1/5 274/1/5 276/1/5
f 279/1/5 277/1/5 273/1/5
f 279/1/5 278/1/5 277/1/5
f 280/1/5 278/1/5 279/1/5
f 281/1/5 274/1/5 278/1/5
f 281/1/5 278/1/5 280/1/5
f 282/1/5 274/1/5 281/1/5
f 283/2/5 281/2/5 280/2/5
f 284/2/5 281/2/5 283/2/5
f 285/6/6 286/6/6 289/6/6
f 289/6/6 286/6/6 290/6/6
f 287/6/6 288/6/6 291/6/6
f 291/6/6 288/6/6 292/6/6
f 293/1/6 294/1/6 303/1/6
f 294/4/6 295/4/6 304/4/6
f 303/1/6 294/1/6 304/1/6
f 304/4/6 295/4/6 305/4/6
f 296/4/6 297/4/6 306/4/6
f 306/4/6 297/4/6 307/4/6
f 298/4/6 299/4/6 308/4/6
f 308/4/6 299/4/6 309/4/6
f 300/4/6 301/4/6 310/4/6
f 301/1/6 302/1/6 311/1/6
f 310/4/6 301/4/6 311/4/6
f 311/1/6 302/1/6 312/1/6
f 313/4/6 314/4/6 317/4/6
f 317/4/6 314/4/6 318/4/6
f 315/4/6 316/4/6 319/4/6
f 319/4/6 316/4/6 320/4/6
f 321/2/6 322/2/6 323/2/6
f 323/2/6 322/2/6 324/2/6
f 325/1/6 326/1/6 327/1/6
f 327/1/6 326/1/6 328/1/6
f 325/1/6 327/1/6 329/1/6
f 328/1/6 326/1/6 330/1/6
f 325/1/6 329/1/6 331/1/6
f 329/1/6 330/1/6 331/1/6
f 330/1/6 326/1/6 332/1/6
f 331/1/6 330/1/6 332/1/6
f 325/1/6 331/1/6 333/1/6
f 332/1/6 326/1/6 336/1/6
f 325/1/6 333/1/6 337/1/6
f 333/4/6 334/4/6 338/4/6
f 337/1/6 333/1/6 338/1/6
f 334/1/6 335/1/6 339/1/6
f 338/4/6 334/4/6 339/4/6
f 335/4/6 336/4/6 340/4/6
f 339/1/6 335/1/6 340/1/6
f 336/1/6 326/1/6 341/1/6
f 340/4/6 336/4/6 341/4/6
f 341/1/6 326/1/6 342/1/6
f 343/5/6 344/5/6 345/5/6
f 345/5/6 344/5/6 346/5/6
f 347/5/6 348/5/6 349/5/6
f 349/5/6 348/5/6 350/5/6
