# MagicaVoxel @ Ephtracy

# material
mtllib Heart.mtl
usemtl palette

# normals
vn -1 0 0
vn 1 0 0
vn 0 0 1
vn 0 0 -1
vn 0 -1 0
vn 0 1 0

# texcoords
vt 0.279297 0.5
vt 0.841797 0.5
vt 0.857422 0.5
vt 0.966797 0.5
vt 0.986328 0.5

# verts
v -8 9 -1
v -8 9 -2
v -8 13 -1
v -8 13 -2
v -7 8 -1
v -7 8 -2
v -7 9 -1
v -7 9 -2
v -7 13 -1
v -7 13 -2
v -7 14 -1
v -7 14 -2
v -6 7 -1
v -6 7 -2
v -6 8 -1
v -6 8 -2
v -6 14 -1
v -6 14 -2
v -6 15 -1
v -6 15 -2
v -5 6 -1
v -5 6 -2
v -5 7 -1
v -5 7 -2
v -4 5 -1
v -4 5 -2
v -4 6 -1
v -4 6 -2
v -3 4 -1
v -3 4 -2
v -3 5 -1
v -3 5 -2
v -2 3 -1
v -2 3 -2
v -2 4 -1
v -2 4 -2
v -1 2 -1
v -1 2 -2
v -1 3 -1
v -1 3 -2
v 0 13 -1
v 0 13 -2
v 0 14 -1
v 0 14 -2
v 1 14 -1
v 1 14 -2
v 1 15 -1
v 1 15 -2
v -2 14 -1
v -2 14 -2
v -2 15 -1
v -2 15 -2
v -1 13 -1
v -1 13 -2
v -1 14 -1
v -1 14 -2
v 0 2 -1
v 0 2 -2
v 0 3 -1
v 0 3 -2
v 1 3 -1
v 1 3 -2
v 1 4 -1
v 1 4 -2
v 2 4 -1
v 2 4 -2
v 2 5 -1
v 2 5 -2
v 3 5 -1
v 3 5 -2
v 3 6 -1
v 3 6 -2
v 4 6 -1
v 4 6 -2
v 4 7 -1
v 4 7 -2
v 5 7 -1
v 5 7 -2
v 5 8 -1
v 5 8 -2
v 5 14 -1
v 5 14 -2
v 5 15 -1
v 5 15 -2
v 6 8 -1
v 6 8 -2
v 6 9 -1
v 6 9 -2
v 6 13 -1
v 6 13 -2
v 6 14 -1
v 6 14 -2
v 7 9 -1
v 7 9 -2
v 7 13 -1
v 7 13 -2
v -8 9 -1
v -8 13 -1
v -7 8 -1
v -7 9 -1
v -7 12 -1
v -7 13 -1
v -7 14 -1
v -6 7 -1
v -6 8 -1
v -6 9 -1
v -6 10 -1
v -6 12 -1
v -6 13 -1
v -6 14 -1
v -6 15 -1
v -5 6 -1
v -5 7 -1
v -5 8 -1
v -5 9 -1
v -5 10 -1
v -5 11 -1
v -5 12 -1
v -5 13 -1
v -5 14 -1
v -4 5 -1
v -4 6 -1
v -4 7 -1
v -4 8 -1
v -4 9 -1
v -4 11 -1
v -4 12 -1
v -4 13 -1
v -4 14 -1
v -3 4 -1
v -3 5 -1
v -3 6 -1
v -3 13 -1
v -3 14 -1
v -2 3 -1
v -2 4 -1
v -2 5 -1
v -2 12 -1
v -2 13 -1
v -2 14 -1
v -2 15 -1
v -1 2 -1
v -1 3 -1
v -1 4 -1
v -1 13 -1
v -1 14 -1
v 0 2 -1
v 0 3 -1
v 0 4 -1
v 0 13 -1
v 0 14 -1
v 1 3 -1
v 1 4 -1
v 1 5 -1
v 1 12 -1
v 1 13 -1
v 1 14 -1
v 1 15 -1
v 2 4 -1
v 2 5 -1
v 2 6 -1
v 2 13 -1
v 2 14 -1
v 3 5 -1
v 3 6 -1
v 3 7 -1
v 4 6 -1
v 4 7 -1
v 4 8 -1
v 4 12 -1
v 4 13 -1
v 4 14 -1
v 5 7 -1
v 5 8 -1
v 5 9 -1
v 5 10 -1
v 5 12 -1
v 5 13 -1
v 5 14 -1
v 5 15 -1
v 6 8 -1
v 6 9 -1
v 6 10 -1
v 6 12 -1
v 6 13 -1
v 6 14 -1
v 7 9 -1
v 7 13 -1
v -8 9 -2
v -8 13 -2
v -7 8 -2
v -7 9 -2
v -7 12 -2
v -7 13 -2
v -7 14 -2
v -6 7 -2
v -6 8 -2
v -6 9 -2
v -6 10 -2
v -6 12 -2
v -6 13 -2
v -6 14 -2
v -6 15 -2
v -5 6 -2
v -5 7 -2
v -5 8 -2
v -5 9 -2
v -5 10 -2
v -5 11 -2
v -5 12 -2
v -5 13 -2
v -5 14 -2
v -4 5 -2
v -4 6 -2
v -4 7 -2
v -4 8 -2
v -4 9 -2
v -4 11 -2
v -4 12 -2
v -4 13 -2
v -4 14 -2
v -3 4 -2
v -3 5 -2
v -3 6 -2
v -3 13 -2
v -3 14 -2
v -2 3 -2
v -2 4 -2
v -2 5 -2
v -2 12 -2
v -2 13 -2
v -2 14 -2
v -2 15 -2
v -1 2 -2
v -1 3 -2
v -1 4 -2
v -1 13 -2
v -1 14 -2
v 0 2 -2
v 0 3 -2
v 0 4 -2
v 0 13 -2
v 0 14 -2
v 1 3 -2
v 1 4 -2
v 1 5 -2
v 1 12 -2
v 1 13 -2
v 1 14 -2
v 1 15 -2
v 2 4 -2
v 2 5 -2
v 2 6 -2
v 2 13 -2
v 2 14 -2
v 3 5 -2
v 3 6 -2
v 3 7 -2
v 4 6 -2
v 4 7 -2
v 4 8 -2
v 4 12 -2
v 4 13 -2
v 4 14 -2
v 5 7 -2
v 5 8 -2
v 5 9 -2
v 5 10 -2
v 5 12 -2
v 5 13 -2
v 5 14 -2
v 5 15 -2
v 6 8 -2
v 6 9 -2
v 6 10 -2
v 6 12 -2
v 6 13 -2
v 6 14 -2
v 7 9 -2
v 7 13 -2
v -1 2 -1
v 0 2 -1
v -1 2 -2
v 0 2 -2
v -2 3 -1
v -1 3 -1
v 0 3 -1
v 1 3 -1
v -2 3 -2
v -1 3 -2
v 0 3 -2
v 1 3 -2
v -3 4 -1
v -2 4 -1
v 1 4 -1
v 2 4 -1
v -3 4 -2
v -2 4 -2
v 1 4 -2
v 2 4 -2
v -4 5 -1
v -3 5 -1
v 2 5 -1
v 3 5 -1
v -4 5 -2
v -3 5 -2
v 2 5 -2
v 3 5 -2
v -5 6 -1
v -4 6 -1
v 3 6 -1
v 4 6 -1
v -5 6 -2
v -4 6 -2
v 3 6 -2
v 4 6 -2
v -6 7 -1
v -5 7 -1
v 4 7 -1
v 5 7 -1
v -6 7 -2
v -5 7 -2
v 4 7 -2
v 5 7 -2
v -7 8 -1
v -6 8 -1
v 5 8 -1
v 6 8 -1
v -7 8 -2
v -6 8 -2
v 5 8 -2
v 6 8 -2
v -8 9 -1
v -7 9 -1
v 6 9 -1
v 7 9 -1
v -8 9 -2
v -7 9 -2
v 6 9 -2
v 7 9 -2
v -8 13 -1
v -7 13 -1
v -1 13 -1
v 0 13 -1
v 6 13 -1
v 7 13 -1
v -8 13 -2
v -7 13 -2
v -1 13 -2
v 0 13 -2
v 6 13 -2
v 7 13 -2
v -7 14 -1
v -6 14 -1
v -2 14 -1
v -1 14 -1
v 0 14 -1
v 1 14 -1
v 5 14 -1
v 6 14 -1
v -7 14 -2
v -6 14 -2
v -2 14 -2
v -1 14 -2
v 0 14 -2
v 1 14 -2
v 5 14 -2
v 6 14 -2
v -6 15 -1
v -2 15 -1
v 1 15 -1
v 5 15 -1
v -6 15 -2
v -2 15 -2
v 1 15 -2
v 5 15 -2

# faces
f 3/5/1 2/5/1 1/5/1
f 4/5/1 2/5/1 3/5/1
f 7/5/1 6/5/1 5/5/1
f 8/5/1 6/5/1 7/5/1
f 11/5/1 10/5/1 9/5/1
f 12/5/1 10/5/1 11/5/1
f 15/5/1 14/5/1 13/5/1
f 16/5/1 14/5/1 15/5/1
f 19/5/1 18/5/1 17/5/1
f 20/5/1 18/5/1 19/5/1
f 23/5/1 22/5/1 21/5/1
f 24/5/1 22/5/1 23/5/1
f 27/5/1 26/5/1 25/5/1
f 28/5/1 26/5/1 27/5/1
f 31/5/1 30/5/1 29/5/1
f 32/5/1 30/5/1 31/5/1
f 35/5/1 34/5/1 33/5/1
f 36/5/1 34/5/1 35/5/1
f 39/5/1 38/5/1 37/5/1
f 40/5/1 38/5/1 39/5/1
f 43/5/1 42/5/1 41/5/1
f 44/5/1 42/5/1 43/5/1
f 47/5/1 46/5/1 45/5/1
f 48/5/1 46/5/1 47/5/1
f 49/5/2 50/5/2 51/5/2
f 51/5/2 50/5/2 52/5/2
f 53/5/2 54/5/2 55/5/2
f 55/5/2 54/5/2 56/5/2
f 57/5/2 58/5/2 59/5/2
f 59/5/2 58/5/2 60/5/2
f 61/5/2 62/5/2 63/5/2
f 63/5/2 62/5/2 64/5/2
f 65/5/2 66/5/2 67/5/2
f 67/5/2 66/5/2 68/5/2
f 69/5/2 70/5/2 71/5/2
f 71/5/2 70/5/2 72/5/2
f 73/5/2 74/5/2 75/5/2
f 75/5/2 74/5/2 76/5/2
f 77/5/2 78/5/2 79/5/2
f 79/5/2 78/5/2 80/5/2
f 81/5/2 82/5/2 83/5/2
f 83/5/2 82/5/2 84/5/2
f 85/5/2 86/5/2 87/5/2
f 87/5/2 86/5/2 88/5/2
f 89/5/2 90/5/2 91/5/2
f 91/5/2 90/5/2 92/5/2
f 93/5/2 94/5/2 95/5/2
f 95/5/2 94/5/2 96/5/2
f 100/5/3 98/5/3 97/5/3
f 101/5/3 98/5/3 100/5/3
f 102/5/3 98/5/3 101/5/3
f 105/5/3 100/5/3 99/5/3
f 106/2/3 101/2/3 100/2/3
f 106/5/3 100/5/3 105/5/3
f 107/2/3 101/2/3 106/2/3
f 108/5/3 103/5/3 102/5/3
f 108/2/3 101/2/3 107/2/3
f 108/5/3 102/5/3 101/5/3
f 109/5/3 103/5/3 108/5/3
f 110/5/3 103/5/3 109/5/3
f 113/5/3 105/5/3 104/5/3
f 114/2/3 107/2/3 106/2/3
f 114/2/3 106/2/3 105/2/3
f 114/5/3 105/5/3 113/5/3
f 115/2/3 107/2/3 114/2/3
f 116/4/3 108/4/3 107/4/3
f 116/2/3 107/2/3 115/2/3
f 117/4/3 108/4/3 116/4/3
f 118/1/3 109/1/3 108/1/3
f 118/4/3 108/4/3 117/4/3
f 119/5/3 111/5/3 110/5/3
f 119/1/3 109/1/3 118/1/3
f 119/5/3 110/5/3 109/5/3
f 120/5/3 111/5/3 119/5/3
f 122/5/3 113/5/3 112/5/3
f 123/2/3 114/2/3 113/2/3
f 123/5/3 113/5/3 122/5/3
f 124/4/3 115/4/3 114/4/3
f 124/2/3 114/2/3 123/2/3
f 125/2/3 117/2/3 116/2/3
f 125/4/3 115/4/3 124/4/3
f 125/2/3 116/2/3 115/2/3
f 126/4/3 118/4/3 117/4/3
f 126/2/3 117/2/3 125/2/3
f 127/2/3 119/2/3 118/2/3
f 127/4/3 118/4/3 126/4/3
f 128/1/3 120/1/3 119/1/3
f 128/2/3 119/2/3 127/2/3
f 129/5/3 111/5/3 120/5/3
f 129/1/3 120/1/3 128/1/3
f 131/5/3 122/5/3 121/5/3
f 132/2/3 128/2/3 127/2/3
f 132/2/3 125/2/3 124/2/3
f 132/5/3 122/5/3 131/5/3
f 132/2/3 123/2/3 122/2/3
f 132/2/3 129/2/3 128/2/3
f 132/2/3 127/2/3 126/2/3
f 132/2/3 126/2/3 125/2/3
f 132/2/3 124/2/3 123/2/3
f 133/2/3 129/2/3 132/2/3
f 134/5/3 111/5/3 129/5/3
f 134/2/3 129/2/3 133/2/3
f 136/5/3 131/5/3 130/5/3
f 137/2/3 133/2/3 132/2/3
f 137/2/3 132/2/3 131/2/3
f 137/5/3 131/5/3 136/5/3
f 138/2/3 133/2/3 137/2/3
f 139/5/3 134/5/3 133/5/3
f 139/2/3 133/2/3 138/2/3
f 140/5/3 111/5/3 134/5/3
f 140/5/3 134/5/3 139/5/3
f 141/5/3 111/5/3 140/5/3
f 143/5/3 136/5/3 135/5/3
f 144/2/3 138/2/3 137/2/3
f 144/2/3 137/2/3 136/2/3
f 144/5/3 136/5/3 143/5/3
f 145/5/3 139/5/3 138/5/3
f 145/5/3 140/5/3 139/5/3
f 146/5/3 140/5/3 145/5/3
f 147/5/3 143/5/3 142/5/3
f 148/2/3 144/2/3 143/2/3
f 148/5/3 143/5/3 147/5/3
f 149/2/3 138/2/3 144/2/3
f 149/2/3 144/2/3 148/2/3
f 150/5/3 145/5/3 138/5/3
f 152/5/3 149/5/3 148/5/3
f 153/2/3 138/2/3 149/2/3
f 153/5/3 149/5/3 152/5/3
f 154/2/3 138/2/3 153/2/3
f 155/5/3 151/5/3 150/5/3
f 155/2/3 138/2/3 154/2/3
f 155/5/3 150/5/3 138/5/3
f 156/5/3 151/5/3 155/5/3
f 157/5/3 151/5/3 156/5/3
f 159/5/3 154/5/3 153/5/3
f 160/2/3 156/2/3 155/2/3
f 160/5/3 154/5/3 159/5/3
f 160/2/3 155/2/3 154/2/3
f 161/2/3 156/2/3 160/2/3
f 162/5/3 158/5/3 157/5/3
f 162/2/3 156/2/3 161/2/3
f 162/5/3 157/5/3 156/5/3
f 163/5/3 158/5/3 162/5/3
f 164/5/3 161/5/3 160/5/3
f 165/2/3 162/2/3 161/2/3
f 165/5/3 161/5/3 164/5/3
f 166/2/3 162/2/3 165/2/3
f 167/5/3 166/5/3 165/5/3
f 168/2/3 162/2/3 166/2/3
f 168/5/3 166/5/3 167/5/3
f 169/2/3 162/2/3 168/2/3
f 170/2/3 162/2/3 169/2/3
f 171/3/3 163/3/3 162/3/3
f 171/2/3 162/2/3 170/2/3
f 172/5/3 158/5/3 163/5/3
f 172/3/3 163/3/3 171/3/3
f 173/5/3 169/5/3 168/5/3
f 174/2/3 170/2/3 169/2/3
f 174/5/3 169/5/3 173/5/3
f 175/2/3 170/2/3 174/2/3
f 176/2/3 170/2/3 175/2/3
f 177/3/3 171/3/3 170/3/3
f 177/2/3 170/2/3 176/2/3
f 178/5/3 172/5/3 171/5/3
f 178/3/3 171/3/3 177/3/3
f 179/5/3 158/5/3 172/5/3
f 179/5/3 172/5/3 178/5/3
f 180/5/3 158/5/3 179/5/3
f 181/5/3 175/5/3 174/5/3
f 182/2/3 176/2/3 175/2/3
f 182/5/3 175/5/3 181/5/3
f 183/3/3 177/3/3 176/3/3
f 183/2/3 176/2/3 182/2/3
f 184/5/3 178/5/3 177/5/3
f 184/3/3 177/3/3 183/3/3
f 184/5/3 179/5/3 178/5/3
f 185/5/3 179/5/3 184/5/3
f 186/5/3 179/5/3 185/5/3
f 187/5/3 183/5/3 182/5/3
f 187/5/3 185/5/3 184/5/3
f 187/5/3 184/5/3 183/5/3
f 188/5/3 185/5/3 187/5/3
f 189/5/4 190/5/4 192/5/4
f 192/5/4 190/5/4 193/5/4
f 193/5/4 190/5/4 194/5/4
f 191/5/4 192/5/4 197/5/4
f 192/2/4 193/2/4 198/2/4
f 197/5/4 192/5/4 198/5/4
f 198/2/4 193/2/4 199/2/4
f 194/5/4 195/5/4 200/5/4
f 199/2/4 193/2/4 200/2/4
f 193/5/4 194/5/4 200/5/4
f 200/5/4 195/5/4 201/5/4
f 201/5/4 195/5/4 202/5/4
f 196/5/4 197/5/4 205/5/4
f 198/2/4 199/2/4 206/2/4
f 197/2/4 198/2/4 206/2/4
f 205/5/4 197/5/4 206/5/4
f 206/2/4 199/2/4 207/2/4
f 199/4/4 200/4/4 208/4/4
f 207/2/4 199/2/4 208/2/4
f 208/4/4 200/4/4 209/4/4
f 200/1/4 201/1/4 210/1/4
f 209/4/4 200/4/4 210/4/4
f 202/5/4 203/5/4 211/5/4
f 210/1/4 201/1/4 211/1/4
f 201/5/4 202/5/4 211/5/4
f 211/5/4 203/5/4 212/5/4
f 204/5/4 205/5/4 214/5/4
f 205/2/4 206/2/4 215/2/4
f 214/5/4 205/5/4 215/5/4
f 206/4/4 207/4/4 216/4/4
f 215/2/4 206/2/4 216/2/4
f 208/2/4 209/2/4 217/2/4
f 216/4/4 207/4/4 217/4/4
f 207/2/4 208/2/4 217/2/4
f 209/4/4 210/4/4 218/4/4
f 217/2/4 209/2/4 218/2/4
f 210/2/4 211/2/4 219/2/4
f 218/4/4 210/4/4 219/4/4
f 211/1/4 212/1/4 220/1/4
f 219/2/4 211/2/4 220/2/4
f 212/5/4 203/5/4 221/5/4
f 220/1/4 212/1/4 221/1/4
f 213/5/4 214/5/4 223/5/4
f 219/2/4 220/2/4 224/2/4
f 216/2/4 217/2/4 224/2/4
f 223/5/4 214/5/4 224/5/4
f 214/2/4 215/2/4 224/2/4
f 220/2/4 221/2/4 224/2/4
f 218/2/4 219/2/4 224/2/4
f 217/2/4 218/2/4 224/2/4
f 215/2/4 216/2/4 224/2/4
f 224/2/4 221/2/4 225/2/4
f 221/5/4 203/5/4 226/5/4
f 225/2/4 221/2/4 226/2/4
f 222/5/4 223/5/4 228/5/4
f 224/2/4 225/2/4 229/2/4
f 223/2/4 224/2/4 229/2/4
f 228/5/4 223/5/4 229/5/4
f 229/2/4 225/2/4 230/2/4
f 225/5/4 226/5/4 231/5/4
f 230/2/4 225/2/4 231/2/4
f 226/5/4 203/5/4 232/5/4
f 231/5/4 226/5/4 232/5/4
f 232/5/4 203/5/4 233/5/4
f 227/5/4 228/5/4 235/5/4
f 229/2/4 230/2/4 236/2/4
f 228/2/4 229/2/4 236/2/4
f 235/5/4 228/5/4 236/5/4
f 230/5/4 231/5/4 237/5/4
f 231/5/4 232/5/4 237/5/4
f 237/5/4 232/5/4 238/5/4
f 234/5/4 235/5/4 239/5/4
f 235/2/4 236/2/4 240/2/4
f 239/5/4 235/5/4 240/5/4
f 236/2/4 230/2/4 241/2/4
f 240/2/4 236/2/4 241/2/4
f 230/5/4 237/5/4 242/5/4
f 240/5/4 241/5/4 244/5/4
f 241/2/4 230/2/4 245/2/4
f 244/5/4 241/5/4 245/5/4
f 245/2/4 230/2/4 246/2/4
f 242/5/4 243/5/4 247/5/4
f 246/2/4 230/2/4 247/2/4
f 230/5/4 242/5/4 247/5/4
f 247/5/4 243/5/4 248/5/4
f 248/5/4 243/5/4 249/5/4
f 245/5/4 246/5/4 251/5/4
f 247/2/4 248/2/4 252/2/4
f 251/5/4 246/5/4 252/5/4
f 246/2/4 247/2/4 252/2/4
f 252/2/4 248/2/4 253/2/4
f 249/5/4 250/5/4 254/5/4
f 253/2/4 248/2/4 254/2/4
f 248/5/4 249/5/4 254/5/4
f 254/5/4 250/5/4 255/5/4
f 252/5/4 253/5/4 256/5/4
f 253/2/4 254/2/4 257/2/4
f 256/5/4 253/5/4 257/5/4
f 257/2/4 254/2/4 258/2/4
f 257/5/4 258/5/4 259/5/4
f 258/2/4 254/2/4 260/2/4
f 259/5/4 258/5/4 260/5/4
f 260/2/4 254/2/4 261/2/4
f 261/2/4 254/2/4 262/2/4
f 254/3/4 255/3/4 263/3/4
f 262/2/4 254/2/4 263/2/4
f 255/5/4 250/5/4 264/5/4
f 263/3/4 255/3/4 264/3/4
f 260/5/4 261/5/4 265/5/4
f 261/2/4 262/2/4 266/2/4
f 265/5/4 261/5/4 266/5/4
f 266/2/4 262/2/4 267/2/4
f 267/2/4 262/2/4 268/2/4
f 262/3/4 263/3/4 269/3/4
f 268/2/4 262/2/4 269/2/4
f 263/5/4 264/5/4 270/5/4
f 269/3/4 263/3/4 270/3/4
f 264/5/4 250/5/4 271/5/4
f 270/5/4 264/5/4 271/5/4
f 271/5/4 250/5/4 272/5/4
f 266/5/4 267/5/4 273/5/4
f 267/2/4 268/2/4 274/2/4
f 273/5/4 267/5/4 274/5/4
f 268/3/4 269/3/4 275/3/4
f 274/2/4 268/2/4 275/2/4
f 269/5/4 270/5/4 276/5/4
f 275/3/4 269/3/4 276/3/4
f 270/5/4 271/5/4 276/5/4
f 276/5/4 271/5/4 277/5/4
f 277/5/4 271/5/4 278/5/4
f 274/5/4 275/5/4 279/5/4
f 276/5/4 277/5/4 279/5/4
f 275/5/4 276/5/4 279/5/4
f 279/5/4 277/5/4 280/5/4
f 283/5/5 282/5/5 281/5/5
f 284/5/5 282/5/5 283/5/5
f 289/5/5 286/5/5 285/5/5
f 290/5/5 286/5/5 289/5/5
f 291/5/5 288/5/5 287/5/5
f 292/5/5 288/5/5 291/5/5
f 297/5/5 294/5/5 293/5/5
f 298/5/5 294/5/5 297/5/5
f 299/5/5 296/5/5 295/5/5
f 300/5/5 296/5/5 299/5/5
f 305/5/5 302/5/5 301/5/5
f 306/5/5 302/5/5 305/5/5
f 307/5/5 304/5/5 303/5/5
f 308/5/5 304/5/5 307/5/5
f 313/5/5 310/5/5 309/5/5
f 314/5/5 310/5/5 313/5/5
f 315/5/5 312/5/5 311/5/5
f 316/5/5 312/5/5 315/5/5
f 321/5/5 318/5/5 317/5/5
f 322/5/5 318/5/5 321/5/5
f 323/5/5 320/5/5 319/5/5
f 324/5/5 320/5/5 323/5/5
f 329/5/5 326/5/5 325/5/5
f 330/5/5 326/5/5 329/5/5
f 331/5/5 328/5/5 327/5/5
f 332/5/5 328/5/5 331/5/5
f 337/5/5 334/5/5 333/5/5
f 338/5/5 334/5/5 337/5/5
f 339/5/5 336/5/5 335/5/5
f 340/5/5 336/5/5 339/5/5
f 341/5/6 342/5/6 347/5/6
f 347/5/6 342/5/6 348/5/6
f 343/5/6 344/5/6 349/5/6
f 349/5/6 344/5/6 350/5/6
f 345/5/6 346/5/6 351/5/6
f 351/5/6 346/5/6 352/5/6
f 353/5/6 354/5/6 361/5/6
f 361/5/6 354/5/6 362/5/6
f 355/5/6 356/5/6 363/5/6
f 363/5/6 356/5/6 364/5/6
f 357/5/6 358/5/6 365/5/6
f 365/5/6 358/5/6 366/5/6
f 359/5/6 360/5/6 367/5/6
f 367/5/6 360/5/6 368/5/6
f 369/5/6 370/5/6 373/5/6
f 373/5/6 370/5/6 374/5/6
f 371/5/6 372/5/6 375/5/6
f 375/5/6 372/5/6 376/5/6
