# MagicaVoxel @ Ephtracy

# material
mtllib JunglePlaceholder.mtl
usemtl palette

# normals
vn -1 0 0
vn 1 0 0
vn 0 0 1
vn 0 0 -1
vn 0 -1 0
vn 0 1 0

# texcoords
vt 0.650391 0.5
vt 0.654297 0.5
vt 0.673828 0.5
vt 0.791016 0.5
vt 0.794922 0.5
vt 0.818359 0.5
vt 0.986328 0.5
vt 0.990234 0.5

# verts
v -20 0 16
v -20 0 -11
v -20 1 16
v -20 1 -11
v -20 10 15
v -20 10 -4
v -20 11 -4
v -20 11 -11
v -20 13 17
v -20 13 16
v -20 13 -5
v -20 13 -9
v -20 14 16
v -20 14 15
v -20 14 -3
v -20 14 -5
v -20 14 -9
v -20 14 -11
v -20 15 -0
v -20 15 -3
v -20 16 6
v -20 16 -0
v -20 17 17
v -20 17 16
v -20 17 12
v -20 17 6
v -20 18 16
v -20 18 12
v -16 3 14
v -16 3 13
v -16 4 14
v -16 4 13
v -10 4 14
v -10 4 13
v -10 5 14
v -10 5 13
v -3 5 14
v -3 5 13
v -3 6 14
v -3 6 13
v -2 9 15
v -2 9 14
v -2 10 15
v -2 10 14
v -1 0 17
v -1 0 16
v -1 1 17
v -1 1 16
v 0 6 14
v 0 6 13
v 0 7 14
v 0 7 13
v 2 10 15
v 2 10 14
v 2 11 15
v 2 11 14
v 4 11 15
v 4 11 14
v 4 12 15
v 4 12 14
v 10 14 16
v 10 14 15
v 10 15 16
v 10 15 15
v 13 15 16
v 13 15 15
v 13 16 16
v 13 16 15
v 17 1 13
v 17 1 -11
v 17 4 13
v 17 4 7
v 17 5 7
v 17 5 2
v 17 6 2
v 17 6 -2
v 17 6 -8
v 17 6 -11
v 17 7 -2
v 17 7 -8
v 17 10 15
v 17 10 14
v 17 11 15
v 17 11 14
v 18 4 13
v 18 4 7
v 18 5 14
v 18 5 13
v 18 5 7
v 18 5 2
v 18 6 2
v 18 6 -2
v 18 6 -8
v 18 6 -11
v 18 7 -2
v 18 7 -8
v 18 11 14
v 18 11 10
v 18 12 10
v 18 12 3
v 18 12 -9
v 18 12 -11
v 18 13 3
v 18 13 -1
v 18 13 -5
v 18 13 -9
v 18 14 -1
v 18 14 -5
v 19 11 15
v 19 11 10
v 19 12 10
v 19 12 3
v 19 12 -9
v 19 12 -11
v 19 13 3
v 19 13 -1
v 19 13 -5
v 19 13 -9
v 19 14 10
v 19 14 -1
v 19 14 -2
v 19 14 -5
v 19 15 12
v 19 15 10
v 19 15 -2
v 19 15 -6
v 19 16 15
v 19 16 12
v 19 16 -6
v 19 16 -9
v 19 17 -9
v 19 17 -11
v -19 10 2
v -19 10 -4
v -19 11 6
v -19 11 2
v -19 11 -4
v -19 11 -7
v -19 12 11
v -19 12 6
v -19 12 -7
v -19 12 -11
v -19 13 15
v -19 13 11
v -19 13 -5
v -19 13 -9
v -19 14 -3
v -19 14 -5
v -19 14 -9
v -19 14 -11
v -19 15 -0
v -19 15 -3
v -19 16 6
v -19 16 -0
v -19 17 12
v -19 17 6
v -19 18 15
v -19 18 12
v -18 3 14
v -18 3 9
v -18 4 9
v -18 4 3
v -18 5 3
v -18 5 -3
v -18 5 -8
v -18 5 -11
v -18 6 -3
v -18 6 -8
v -18 10 2
v -18 10 -4
v -18 11 6
v -18 11 2
v -18 11 -4
v -18 11 -7
v -18 12 11
v -18 12 6
v -18 12 -7
v -18 12 -11
v -18 13 14
v -18 13 11
v -18 17 16
v -18 17 15
v -18 18 16
v -18 18 15
v -17 1 13
v -17 1 -11
v -17 3 13
v -17 3 9
v -17 4 9
v -17 4 3
v -17 5 3
v -17 5 -3
v -17 5 -8
v -17 5 -11
v -17 6 -3
v -17 6 -8
v -17 12 15
v -17 12 14
v -17 13 15
v -17 13 14
v -15 11 15
v -15 11 14
v -15 12 15
v -15 12 14
v -13 15 17
v -13 15 16
v -13 16 16
v -13 16 15
v -13 17 17
v -13 17 15
v -10 10 15
v -10 10 14
v -10 11 15
v -10 11 14
v -10 15 16
v -10 15 15
v -10 16 16
v -10 16 15
v -5 9 15
v -5 9 14
v -5 10 15
v -5 10 14
v -4 13 17
v -4 13 16
v -4 15 17
v -4 15 16
v -1 14 16
v -1 14 15
v -1 15 16
v -1 15 15
v 2 0 17
v 2 0 16
v 2 1 17
v 2 1 16
v 6 6 14
v 6 6 13
v 6 7 14
v 6 7 13
v 9 11 15
v 9 11 14
v 9 12 15
v 9 12 14
v 13 5 14
v 13 5 13
v 13 6 14
v 13 6 13
v 13 10 15
v 13 10 14
v 13 11 15
v 13 11 14
v 20 0 16
v 20 0 -11
v 20 1 16
v 20 1 -11
v 20 11 15
v 20 11 -11
v 20 14 16
v 20 14 15
v 20 14 10
v 20 14 -2
v 20 15 12
v 20 15 10
v 20 15 -2
v 20 15 -6
v 20 16 16
v 20 16 12
v 20 16 -6
v 20 16 -9
v 20 17 -9
v 20 17 -11
v -20 13 17
v -20 17 17
v -13 15 17
v -13 17 17
v -4 13 17
v -4 15 17
v -1 0 17
v -1 1 17
v 2 0 17
v 2 1 17
v -20 0 16
v -20 1 16
v -20 13 16
v -20 17 16
v -20 18 16
v -18 17 16
v -18 18 16
v -17 12 16
v -17 13 16
v -15 11 16
v -15 12 16
v -13 15 16
v -13 16 16
v -10 10 16
v -10 11 16
v -10 15 16
v -10 16 16
v -5 9 16
v -5 10 16
v -4 13 16
v -4 15 16
v -1 0 16
v -1 1 16
v -1 14 16
v -1 15 16
v 2 0 16
v 2 1 16
v 10 14 16
v 10 15 16
v 13 15 16
v 13 16 16
v 17 9 16
v 17 11 16
v 19 11 16
v 19 14 16
v 20 0 16
v 20 1 16
v 20 14 16
v 20 16 16
v 18 11 10
v 18 12 10
v 19 11 10
v 19 12 10
v -18 3 9
v -18 4 9
v -17 3 9
v -17 4 9
v 17 4 7
v 17 5 7
v 18 4 7
v 18 5 7
v -18 4 3
v -18 5 3
v -17 4 3
v -17 5 3
v 18 12 3
v 18 13 3
v 19 12 3
v 19 13 3
v 17 5 2
v 17 6 2
v 18 5 2
v 18 6 2
v 18 13 -1
v 18 14 -1
v 19 13 -1
v 19 14 -1
v 17 6 -2
v 17 7 -2
v 18 6 -2
v 18 7 -2
v 19 14 -2
v 19 15 -2
v 20 14 -2
v 20 15 -2
v -18 5 -3
v -18 6 -3
v -17 5 -3
v -17 6 -3
v -19 10 -4
v -19 11 -4
v -18 10 -4
v -18 11 -4
v 19 15 -6
v 19 16 -6
v 20 15 -6
v 20 16 -6
v -19 11 -7
v -19 12 -7
v -18 11 -7
v -18 12 -7
v -20 13 -9
v -20 14 -9
v -19 13 -9
v -19 14 -9
v 19 16 -9
v 19 17 -9
v 20 16 -9
v 20 17 -9
v -19 13 15
v -19 18 15
v -18 17 15
v -18 18 15
v -17 12 15
v -17 13 15
v -15 11 15
v -15 12 15
v -13 16 15
v -13 17 15
v -10 10 15
v -10 11 15
v -10 15 15
v -10 16 15
v -5 9 15
v -5 10 15
v -2 9 15
v -2 10 15
v -1 14 15
v -1 15 15
v 2 10 15
v 2 11 15
v 4 11 15
v 4 12 15
v 9 11 15
v 9 12 15
v 10 14 15
v 10 15 15
v 13 10 15
v 13 11 15
v 13 15 15
v 13 16 15
v 17 10 15
v 17 11 15
v 19 11 15
v 19 16 15
v -18 3 14
v -18 13 14
v -17 12 14
v -17 13 14
v -16 3 14
v -16 4 14
v -15 11 14
v -15 12 14
v -10 4 14
v -10 5 14
v -10 10 14
v -10 11 14
v -5 9 14
v -5 10 14
v -3 5 14
v -3 6 14
v -2 9 14
v -2 10 14
v 0 6 14
v 0 7 14
v 2 10 14
v 2 11 14
v 4 11 14
v 4 12 14
v 6 6 14
v 6 7 14
v 9 11 14
v 9 12 14
v 13 5 14
v 13 6 14
v 13 10 14
v 13 11 14
v 17 10 14
v 17 11 14
v 18 5 14
v 18 11 14
v -17 1 13
v -17 3 13
v -16 3 13
v -16 4 13
v -10 4 13
v -10 5 13
v -3 5 13
v -3 6 13
v 0 6 13
v 0 7 13
v 6 6 13
v 6 7 13
v 13 5 13
v 13 6 13
v 17 1 13
v 17 4 13
v 18 4 13
v 18 5 13
v -20 17 12
v -20 18 12
v -19 17 12
v -19 18 12
v 19 15 12
v 19 16 12
v 20 15 12
v 20 16 12
v -19 12 11
v -19 13 11
v -18 12 11
v -18 13 11
v 19 14 10
v 19 15 10
v 20 14 10
v 20 15 10
v -20 16 6
v -20 17 6
v -19 11 6
v -19 12 6
v -19 16 6
v -19 17 6
v -18 11 6
v -18 12 6
v -19 10 2
v -19 11 2
v -18 10 2
v -18 11 2
v -20 15 -0
v -20 16 -0
v -19 15 -0
v -19 16 -0
v -20 14 -3
v -20 15 -3
v -19 14 -3
v -19 15 -3
v -20 13 -5
v -20 14 -5
v -19 13 -5
v -19 14 -5
v 18 13 -5
v 18 14 -5
v 19 13 -5
v 19 14 -5
v -18 5 -8
v -18 6 -8
v -17 5 -8
v -17 6 -8
v 17 6 -8
v 17 7 -8
v 18 6 -8
v 18 7 -8
v 18 12 -9
v 18 13 -9
v 19 12 -9
v 19 13 -9
v -20 0 -11
v -20 1 -11
v -20 11 -11
v -20 14 -11
v -19 0 -11
v -19 1 -11
v -19 11 -11
v -19 12 -11
v -19 14 -11
v -18 0 -11
v -18 1 -11
v -18 5 -11
v -18 12 -11
v -17 1 -11
v -17 5 -11
v -16 0 -11
v -16 1 -11
v 16 0 -11
v 16 1 -11
v 17 1 -11
v 17 6 -11
v 18 0 -11
v 18 1 -11
v 18 6 -11
v 18 12 -11
v 19 1 -11
v 19 11 -11
v 19 12 -11
v 19 17 -11
v 20 0 -11
v 20 1 -11
v 20 11 -11
v 20 17 -11
v -1 0 17
v 2 0 17
v -20 0 16
v -1 0 16
v 2 0 16
v 20 0 16
v -18 0 14
v 18 0 14
v -16 0 12
v 16 0 12
v -19 0 -7
v -18 0 -7
v -20 0 -11
v -19 0 -11
v -18 0 -11
v -16 0 -11
v 16 0 -11
v 18 0 -11
v 20 0 -11
v -20 13 17
v -4 13 17
v -20 13 16
v -17 13 16
v -4 13 16
v -1 1 17
v 2 1 17
v -1 1 16
v 2 1 16
v -17 1 13
v 17 1 13
v -16 1 12
v 16 1 12
v -17 1 -11
v -16 1 -11
v 16 1 -11
v 17 1 -11
v -18 3 14
v -16 3 14
v -17 3 13
v -16 3 13
v -18 3 9
v -17 3 9
v -16 4 14
v -10 4 14
v -16 4 13
v -10 4 13
v 17 4 13
v 18 4 13
v -18 4 9
v -17 4 9
v 17 4 7
v 18 4 7
v -18 4 3
v -17 4 3
v -10 5 14
v -3 5 14
v 13 5 14
v 18 5 14
v -10 5 13
v -3 5 13
v 13 5 13
v 18 5 13
v 17 5 7
v 18 5 7
v -18 5 3
v -17 5 3
v 17 5 2
v 18 5 2
v -18 5 -3
v -17 5 -3
v -18 5 -8
v -17 5 -8
v -18 5 -11
v -17 5 -11
v -3 6 14
v 0 6 14
v 6 6 14
v 13 6 14
v -3 6 13
v 0 6 13
v 6 6 13
v 13 6 13
v 17 6 2
v 18 6 2
v 17 6 -2
v 18 6 -2
v -18 6 -3
v -17 6 -3
v -18 6 -8
v -17 6 -8
v 17 6 -8
v 18 6 -8
v 17 6 -11
v 18 6 -11
v 0 7 14
v 6 7 14
v 0 7 13
v 6 7 13
v 17 7 -2
v 18 7 -2
v 17 7 -8
v 18 7 -8
v -5 9 15
v -2 9 15
v -5 9 14
v -2 9 14
v -10 10 15
v -5 10 15
v -2 10 15
v 2 10 15
v 13 10 15
v 17 10 15
v -10 10 14
v -5 10 14
v -2 10 14
v 2 10 14
v 13 10 14
v 17 10 14
v -19 10 2
v -18 10 2
v -19 10 -4
v -18 10 -4
v -15 11 15
v -10 11 15
v 2 11 15
v 4 11 15
v 9 11 15
v 13 11 15
v 17 11 15
v 19 11 15
v -15 11 14
v -10 11 14
v 2 11 14
v 4 11 14
v 9 11 14
v 13 11 14
v 17 11 14
v 18 11 14
v 18 11 10
v 19 11 10
v -19 11 6
v -18 11 6
v -19 11 2
v -18 11 2
v -19 11 -4
v -18 11 -4
v -19 11 -7
v -18 11 -7
v -17 12 15
v -15 12 15
v 4 12 15
v 9 12 15
v -17 12 14
v -15 12 14
v 4 12 14
v 9 12 14
v -19 12 11
v -18 12 11
v 18 12 10
v 19 12 10
v -19 12 6
v -18 12 6
v 18 12 3
v 19 12 3
v -19 12 -7
v -18 12 -7
v 18 12 -9
v 19 12 -9
v -19 12 -11
v -18 12 -11
v 18 12 -11
v 19 12 -11
v -19 13 15
v -17 13 15
v -18 13 14
v -17 13 14
v -19 13 11
v -18 13 11
v 18 13 3
v 19 13 3
v 18 13 -1
v 19 13 -1
v -20 13 -5
v -19 13 -5
v 18 13 -5
v 19 13 -5
v -20 13 -9
v -19 13 -9
v 18 13 -9
v 19 13 -9
v -1 14 16
v 10 14 16
v -1 14 15
v 10 14 15
v 19 14 10
v 20 14 10
v 18 14 -1
v 19 14 -1
v 19 14 -2
v 20 14 -2
v -20 14 -3
v -19 14 -3
v -20 14 -5
v -19 14 -5
v 18 14 -5
v 19 14 -5
v -20 14 -9
v -19 14 -9
v -20 14 -11
v -19 14 -11
v -13 15 17
v -4 15 17
v -13 15 16
v -10 15 16
v -4 15 16
v -1 15 16
v 10 15 16
v 13 15 16
v -10 15 15
v -1 15 15
v 10 15 15
v 13 15 15
v 19 15 12
v 20 15 12
v 19 15 10
v 20 15 10
v -20 15 -0
v -19 15 -0
v 19 15 -2
v 20 15 -2
v -20 15 -3
v -19 15 -3
v 19 15 -6
v 20 15 -6
v -13 16 16
v -10 16 16
v 13 16 16
v 20 16 16
v -13 16 15
v -10 16 15
v 13 16 15
v 19 16 15
v 19 16 12
v 20 16 12
v -20 16 6
v -19 16 6
v -20 16 -0
v -19 16 -0
v 19 16 -6
v 20 16 -6
v 19 16 -9
v 20 16 -9
v -20 17 17
v -13 17 17
v -20 17 16
v -18 17 16
v -18 17 15
v -13 17 15
v -20 17 12
v -19 17 12
v -20 17 6
v -19 17 6
v 19 17 -9
v 20 17 -9
v 19 17 -11
v 20 17 -11
v -20 18 16
v -18 18 16
v -19 18 15
v -18 18 15
v -20 18 12
v -19 18 12

# faces
f 3/8/1 2/8/1 1/8/1
f 4/8/1 2/8/1 3/8/1
f 5/3/1 4/3/1 3/3/1
f 6/3/1 4/3/1 5/3/1
f 7/2/1 6/2/1 5/2/1
f 7/3/1 4/3/1 6/3/1
f 8/3/1 4/3/1 7/3/1
f 10/3/1 5/3/1 3/3/1
f 11/2/1 8/2/1 7/2/1
f 12/2/1 8/2/1 11/2/1
f 13/2/1 10/2/1 9/2/1
f 13/3/1 5/3/1 10/3/1
f 14/2/1 7/2/1 5/2/1
f 14/3/1 5/3/1 13/3/1
f 14/2/1 11/2/1 7/2/1
f 15/2/1 11/2/1 14/2/1
f 16/2/1 11/2/1 15/2/1
f 17/2/1 8/2/1 12/2/1
f 18/2/1 8/2/1 17/2/1
f 19/2/1 14/2/1 13/2/1
f 19/2/1 15/2/1 14/2/1
f 20/2/1 15/2/1 19/2/1
f 21/2/1 19/2/1 13/2/1
f 22/2/1 19/2/1 21/2/1
f 23/2/1 13/2/1 9/2/1
f 23/2/1 21/2/1 13/2/1
f 24/2/1 21/2/1 23/2/1
f 25/2/1 21/2/1 24/2/1
f 26/2/1 21/2/1 25/2/1
f 27/2/1 25/2/1 24/2/1
f 28/2/1 25/2/1 27/2/1
f 31/4/1 30/4/1 29/4/1
f 32/4/1 30/4/1 31/4/1
f 35/4/1 34/4/1 33/4/1
f 36/4/1 34/4/1 35/4/1
f 39/4/1 38/4/1 37/4/1
f 40/4/1 38/4/1 39/4/1
f 43/1/1 42/1/1 41/1/1
f 44/1/1 42/1/1 43/1/1
f 47/7/1 46/7/1 45/7/1
f 48/7/1 46/7/1 47/7/1
f 51/4/1 50/4/1 49/4/1
f 52/4/1 50/4/1 51/4/1
f 55/1/1 54/1/1 53/1/1
f 56/1/1 54/1/1 55/1/1
f 59/1/1 58/1/1 57/1/1
f 60/1/1 58/1/1 59/1/1
f 63/2/1 62/2/1 61/2/1
f 64/2/1 62/2/1 63/2/1
f 67/2/1 66/2/1 65/2/1
f 68/2/1 66/2/1 67/2/1
f 71/4/1 70/4/1 69/4/1
f 72/4/1 70/4/1 71/4/1
f 73/4/1 70/4/1 72/4/1
f 74/4/1 70/4/1 73/4/1
f 75/4/1 70/4/1 74/4/1
f 76/4/1 70/4/1 75/4/1
f 77/4/1 70/4/1 76/4/1
f 78/4/1 70/4/1 77/4/1
f 79/4/1 77/4/1 76/4/1
f 80/4/1 77/4/1 79/4/1
f 83/1/1 82/1/1 81/1/1
f 84/1/1 82/1/1 83/1/1
f 88/1/1 86/1/1 85/1/1
f 89/1/1 86/1/1 88/1/1
f 91/1/1 88/1/1 87/1/1
f 91/1/1 90/1/1 89/1/1
f 91/1/1 89/1/1 88/1/1
f 95/1/1 92/1/1 91/1/1
f 96/1/1 94/1/1 93/1/1
f 97/1/1 91/1/1 87/1/1
f 97/1/1 96/1/1 95/1/1
f 97/1/1 95/1/1 91/1/1
f 98/1/1 96/1/1 97/1/1
f 99/1/1 96/1/1 98/1/1
f 100/1/1 96/1/1 99/1/1
f 101/1/1 94/1/1 96/1/1
f 101/1/1 96/1/1 100/1/1
f 102/1/1 94/1/1 101/1/1
f 103/1/1 101/1/1 100/1/1
f 104/1/1 101/1/1 103/1/1
f 105/1/1 101/1/1 104/1/1
f 106/1/1 101/1/1 105/1/1
f 107/1/1 105/1/1 104/1/1
f 108/1/1 105/1/1 107/1/1
f 111/2/1 110/2/1 109/2/1
f 115/2/1 112/2/1 111/2/1
f 118/2/1 114/2/1 113/2/1
f 119/2/1 111/2/1 109/2/1
f 119/2/1 116/2/1 115/2/1
f 119/2/1 115/2/1 111/2/1
f 120/2/1 116/2/1 119/2/1
f 122/2/1 118/2/1 117/2/1
f 123/2/1 119/2/1 109/2/1
f 124/2/1 119/2/1 123/2/1
f 125/2/1 122/2/1 121/2/1
f 126/2/1 118/2/1 122/2/1
f 126/2/1 122/2/1 125/2/1
f 127/2/1 123/2/1 109/2/1
f 128/2/1 123/2/1 127/2/1
f 129/2/1 118/2/1 126/2/1
f 130/2/1 114/2/1 118/2/1
f 130/2/1 118/2/1 129/2/1
f 131/2/1 114/2/1 130/2/1
f 132/2/1 114/2/1 131/2/1
f 133/2/2 134/2/2 136/2/2
f 136/2/2 134/2/2 137/2/2
f 135/2/2 136/2/2 140/2/2
f 137/2/2 138/2/2 140/2/2
f 136/2/2 137/2/2 140/2/2
f 140/2/2 138/2/2 141/2/2
f 139/2/2 140/2/2 144/2/2
f 141/2/2 142/2/2 144/2/2
f 140/2/2 141/2/2 144/2/2
f 144/2/2 142/2/2 145/2/2
f 145/2/2 142/2/2 146/2/2
f 143/2/2 144/2/2 147/2/2
f 144/2/2 145/2/2 147/2/2
f 147/2/2 145/2/2 148/2/2
f 146/2/2 142/2/2 149/2/2
f 149/2/2 142/2/2 150/2/2
f 143/2/2 147/2/2 151/2/2
f 151/2/2 147/2/2 152/2/2
f 143/2/2 151/2/2 153/2/2
f 153/2/2 151/2/2 154/2/2
f 143/2/2 153/2/2 155/2/2
f 155/2/2 153/2/2 156/2/2
f 143/2/2 155/2/2 157/2/2
f 157/2/2 155/2/2 158/2/2
f 159/1/2 160/1/2 161/1/2
f 161/1/2 162/1/2 163/1/2
f 163/1/2 164/1/2 167/1/2
f 165/1/2 166/1/2 168/1/2
f 163/1/2 167/1/2 169/1/2
f 167/1/2 168/1/2 169/1/2
f 169/1/2 168/1/2 170/1/2
f 161/1/2 163/1/2 171/1/2
f 163/1/2 169/1/2 171/1/2
f 171/1/2 169/1/2 172/1/2
f 170/1/2 168/1/2 173/1/2
f 173/1/2 168/1/2 174/1/2
f 159/1/2 161/1/2 175/1/2
f 161/1/2 171/1/2 175/1/2
f 175/1/2 171/1/2 176/1/2
f 174/1/2 168/1/2 177/1/2
f 168/1/2 166/1/2 178/1/2
f 177/1/2 168/1/2 178/1/2
f 159/1/2 175/1/2 179/1/2
f 179/1/2 175/1/2 180/1/2
f 181/2/2 182/2/2 183/2/2
f 183/2/2 182/2/2 184/2/2
f 185/4/2 186/4/2 187/4/2
f 187/4/2 186/4/2 188/4/2
f 188/4/2 186/4/2 189/4/2
f 189/4/2 186/4/2 190/4/2
f 190/4/2 186/4/2 191/4/2
f 191/4/2 186/4/2 192/4/2
f 192/4/2 186/4/2 193/4/2
f 193/4/2 186/4/2 194/4/2
f 192/4/2 193/4/2 195/4/2
f 195/4/2 193/4/2 196/4/2
f 197/1/2 198/1/2 199/1/2
f 199/1/2 198/1/2 200/1/2
f 201/1/2 202/1/2 203/1/2
f 203/1/2 202/1/2 204/1/2
f 205/2/2 206/2/2 207/2/2
f 205/2/2 207/2/2 209/2/2
f 207/2/2 208/2/2 209/2/2
f 209/2/2 208/2/2 210/2/2
f 211/1/2 212/1/2 213/1/2
f 213/1/2 212/1/2 214/1/2
f 215/2/2 216/2/2 217/2/2
f 217/2/2 216/2/2 218/2/2
f 219/1/2 220/1/2 221/1/2
f 221/1/2 220/1/2 222/1/2
f 223/2/2 224/2/2 225/2/2
f 225/2/2 224/2/2 226/2/2
f 227/2/2 228/2/2 229/2/2
f 229/2/2 228/2/2 230/2/2
f 231/7/2 232/7/2 233/7/2
f 233/7/2 232/7/2 234/7/2
f 235/4/2 236/4/2 237/4/2
f 237/4/2 236/4/2 238/4/2
f 239/1/2 240/1/2 241/1/2
f 241/1/2 240/1/2 242/1/2
f 243/4/2 244/4/2 245/4/2
f 245/4/2 244/4/2 246/4/2
f 247/1/2 248/1/2 249/1/2
f 249/1/2 248/1/2 250/1/2
f 251/8/2 252/8/2 253/8/2
f 253/8/2 252/8/2 254/8/2
f 253/3/2 254/3/2 255/3/2
f 255/3/2 254/3/2 256/3/2
f 253/3/2 255/3/2 257/3/2
f 255/2/2 256/2/2 258/2/2
f 257/3/2 255/3/2 258/3/2
f 258/2/2 256/2/2 259/2/2
f 259/2/2 256/2/2 260/2/2
f 257/2/2 258/2/2 261/2/2
f 258/2/2 259/2/2 261/2/2
f 261/2/2 259/2/2 262/2/2
f 260/2/2 256/2/2 263/2/2
f 263/2/2 256/2/2 264/2/2
f 257/2/2 261/2/2 265/2/2
f 265/2/2 261/2/2 266/2/2
f 264/2/2 256/2/2 267/2/2
f 267/2/2 256/2/2 268/2/2
f 268/2/2 256/2/2 269/2/2
f 269/2/2 256/2/2 270/2/2
f 273/2/3 272/2/3 271/2/3
f 274/2/3 272/2/3 273/2/3
f 275/2/3 273/2/3 271/2/3
f 276/2/3 273/2/3 275/2/3
f 279/7/3 278/7/3 277/7/3
f 280/7/3 278/7/3 279/7/3
f 286/2/3 285/2/3 284/2/3
f 287/2/3 285/2/3 286/2/3
f 288/3/3 283/3/3 282/3/3
f 289/3/3 283/3/3 288/3/3
f 290/3/3 288/3/3 282/3/3
f 291/2/3 289/2/3 288/2/3
f 291/3/3 288/3/3 290/3/3
f 294/3/3 290/3/3 282/3/3
f 295/2/3 291/2/3 290/2/3
f 295/3/3 290/3/3 294/3/3
f 296/2/3 293/2/3 292/2/3
f 297/2/3 293/2/3 296/2/3
f 298/3/3 294/3/3 282/3/3
f 299/2/3 295/2/3 294/2/3
f 299/3/3 294/3/3 298/3/3
f 300/2/3 289/2/3 291/2/3
f 300/2/3 295/2/3 299/2/3
f 300/2/3 299/2/3 298/2/3
f 300/2/3 291/2/3 295/2/3
f 302/8/3 282/8/3 281/8/3
f 303/3/3 298/3/3 282/3/3
f 303/8/3 282/8/3 302/8/3
f 304/2/3 301/2/3 300/2/3
f 305/2/3 301/2/3 304/2/3
f 307/3/3 298/3/3 303/3/3
f 308/2/3 304/2/3 300/2/3
f 310/2/3 309/2/3 308/2/3
f 312/2/3 300/2/3 298/2/3
f 312/2/3 311/2/3 310/2/3
f 312/2/3 308/2/3 300/2/3
f 312/3/3 298/3/3 307/3/3
f 312/2/3 310/2/3 308/2/3
f 313/2/3 311/2/3 312/2/3
f 314/3/3 313/3/3 312/3/3
f 314/2/3 311/2/3 313/2/3
f 315/2/3 311/2/3 314/2/3
f 316/8/3 307/8/3 306/8/3
f 317/3/3 312/3/3 307/3/3
f 317/8/3 307/8/3 316/8/3
f 317/3/3 314/3/3 312/3/3
f 317/3/3 315/3/3 314/3/3
f 318/2/3 311/2/3 315/2/3
f 318/3/3 315/3/3 317/3/3
f 319/2/3 311/2/3 318/2/3
f 322/1/3 321/1/3 320/1/3
f 323/1/3 321/1/3 322/1/3
f 326/4/3 325/4/3 324/4/3
f 327/4/3 325/4/3 326/4/3
f 330/4/3 329/4/3 328/4/3
f 331/4/3 329/4/3 330/4/3
f 334/4/3 333/4/3 332/4/3
f 335/4/3 333/4/3 334/4/3
f 338/1/3 337/1/3 336/1/3
f 339/1/3 337/1/3 338/1/3
f 342/4/3 341/4/3 340/4/3
f 343/4/3 341/4/3 342/4/3
f 346/1/3 345/1/3 344/1/3
f 347/1/3 345/1/3 346/1/3
f 350/4/3 349/4/3 348/4/3
f 351/4/3 349/4/3 350/4/3
f 354/2/3 353/2/3 352/2/3
f 355/2/3 353/2/3 354/2/3
f 358/4/3 357/4/3 356/4/3
f 359/4/3 357/4/3 358/4/3
f 362/1/3 361/1/3 360/1/3
f 363/1/3 361/1/3 362/1/3
f 366/2/3 365/2/3 364/2/3
f 367/2/3 365/2/3 366/2/3
f 370/1/3 369/1/3 368/1/3
f 371/1/3 369/1/3 370/1/3
f 374/2/3 373/2/3 372/2/3
f 375/2/3 373/2/3 374/2/3
f 378/2/3 377/2/3 376/2/3
f 379/2/3 377/2/3 378/2/3
f 380/2/4 381/2/4 382/2/4
f 382/2/4 381/2/4 383/2/4
f 380/2/4 382/2/4 385/2/4
f 384/2/4 385/2/4 387/2/4
f 385/2/4 382/2/4 388/2/4
f 386/2/4 387/2/4 388/2/4
f 387/2/4 385/2/4 388/2/4
f 388/2/4 382/2/4 389/2/4
f 386/2/4 388/2/4 391/2/4
f 391/2/4 388/2/4 392/2/4
f 392/2/4 388/2/4 393/2/4
f 390/2/4 391/2/4 395/2/4
f 391/2/4 392/2/4 395/2/4
f 394/2/4 395/2/4 396/2/4
f 395/2/4 392/2/4 397/2/4
f 396/2/4 395/2/4 397/2/4
f 397/2/4 392/2/4 398/2/4
f 398/2/4 392/2/4 399/2/4
f 397/2/4 398/2/4 400/2/4
f 400/2/4 398/2/4 401/2/4
f 401/2/4 398/2/4 402/2/4
f 402/2/4 398/2/4 403/2/4
f 403/2/4 398/2/4 405/2/4
f 405/2/4 398/2/4 406/2/4
f 404/2/4 405/2/4 406/2/4
f 404/2/4 406/2/4 409/2/4
f 406/2/4 407/2/4 409/2/4
f 409/2/4 407/2/4 410/2/4
f 409/2/4 410/2/4 412/2/4
f 410/2/4 411/2/4 412/2/4
f 408/2/4 409/2/4 412/2/4
f 412/2/4 411/2/4 413/2/4
f 413/2/4 411/2/4 414/2/4
f 414/2/4 411/2/4 415/2/4
f 416/1/4 417/1/4 418/1/4
f 418/1/4 417/1/4 419/1/4
f 416/1/4 418/1/4 420/1/4
f 420/1/4 418/1/4 421/1/4
f 421/1/4 418/1/4 422/1/4
f 422/1/4 418/1/4 423/1/4
f 421/1/4 422/1/4 424/1/4
f 424/1/4 422/1/4 425/1/4
f 425/1/4 422/1/4 426/1/4
f 426/1/4 422/1/4 427/1/4
f 425/1/4 426/1/4 428/1/4
f 428/1/4 426/1/4 429/1/4
f 425/1/4 428/1/4 430/1/4
f 430/1/4 428/1/4 431/1/4
f 431/1/4 428/1/4 432/1/4
f 431/1/4 432/1/4 434/1/4
f 432/1/4 433/1/4 434/1/4
f 434/1/4 433/1/4 435/1/4
f 435/1/4 433/1/4 436/1/4
f 436/1/4 437/1/4 438/1/4
f 436/1/4 438/1/4 441/1/4
f 438/1/4 439/1/4 441/1/4
f 435/1/4 436/1/4 441/1/4
f 441/1/4 439/1/4 442/1/4
f 440/1/4 441/1/4 442/1/4
f 442/1/4 439/1/4 443/1/4
f 440/1/4 442/1/4 445/1/4
f 445/1/4 442/1/4 446/1/4
f 446/1/4 442/1/4 447/1/4
f 444/1/4 445/1/4 448/1/4
f 445/1/4 446/1/4 448/1/4
f 444/1/4 448/1/4 450/1/4
f 448/1/4 449/1/4 450/1/4
f 450/1/4 449/1/4 451/1/4
f 452/4/4 453/4/4 454/4/4
f 454/4/4 455/4/4 456/4/4
f 456/4/4 457/4/4 458/4/4
f 458/4/4 459/4/4 460/4/4
f 458/4/4 460/4/4 462/4/4
f 460/4/4 461/4/4 462/4/4
f 462/4/4 461/4/4 463/4/4
f 456/4/4 458/4/4 464/4/4
f 458/4/4 462/4/4 464/4/4
f 464/4/4 462/4/4 465/4/4
f 452/4/4 454/4/4 466/4/4
f 454/4/4 456/4/4 466/4/4
f 456/4/4 464/4/4 466/4/4
f 466/4/4 464/4/4 467/4/4
f 467/4/4 464/4/4 468/4/4
f 468/4/4 464/4/4 469/4/4
f 470/2/4 471/2/4 472/2/4
f 472/2/4 471/2/4 473/2/4
f 474/2/4 475/2/4 476/2/4
f 476/2/4 475/2/4 477/2/4
f 478/1/4 479/1/4 480/1/4
f 480/1/4 479/1/4 481/1/4
f 482/2/4 483/2/4 484/2/4
f 484/2/4 483/2/4 485/2/4
f 486/2/4 487/2/4 490/2/4
f 490/2/4 487/2/4 491/2/4
f 488/1/4 489/1/4 492/1/4
f 492/1/4 489/1/4 493/1/4
f 494/1/4 495/1/4 496/1/4
f 496/1/4 495/1/4 497/1/4
f 498/2/4 499/2/4 500/2/4
f 500/2/4 499/2/4 501/2/4
f 502/2/4 503/2/4 504/2/4
f 504/2/4 503/2/4 505/2/4
f 506/2/4 507/2/4 508/2/4
f 508/2/4 507/2/4 509/2/4
f 510/1/4 511/1/4 512/1/4
f 512/1/4 511/1/4 513/1/4
f 514/4/4 515/4/4 516/4/4
f 516/4/4 515/4/4 517/4/4
f 518/4/4 519/4/4 520/4/4
f 520/4/4 519/4/4 521/4/4
f 522/1/4 523/1/4 524/1/4
f 524/1/4 523/1/4 525/1/4
f 526/8/4 527/8/4 530/8/4
f 527/3/4 528/3/4 531/3/4
f 530/8/4 527/8/4 531/8/4
f 528/2/4 529/2/4 532/2/4
f 531/3/4 528/3/4 532/3/4
f 532/2/4 529/2/4 533/2/4
f 533/2/4 529/2/4 534/2/4
f 530/5/4 531/5/4 535/5/4
f 531/1/4 532/1/4 536/1/4
f 535/5/4 531/5/4 536/5/4
f 532/1/4 533/1/4 536/1/4
f 536/1/4 533/1/4 537/1/4
f 537/1/4 533/1/4 538/1/4
f 535/6/4 536/6/4 539/6/4
f 536/4/4 537/4/4 539/4/4
f 539/4/4 537/4/4 540/4/4
f 535/6/4 539/6/4 541/6/4
f 541/6/4 539/6/4 542/6/4
f 541/5/4 542/5/4 543/5/4
f 543/5/4 542/5/4 544/5/4
f 543/6/4 544/6/4 545/6/4
f 543/6/4 545/6/4 547/6/4
f 545/4/4 546/4/4 548/4/4
f 547/6/4 545/6/4 548/6/4
f 548/4/4 546/4/4 549/4/4
f 547/8/4 548/8/4 551/8/4
f 549/1/4 550/1/4 551/1/4
f 548/1/4 549/1/4 551/1/4
f 551/1/4 550/1/4 552/1/4
f 552/1/4 550/1/4 553/1/4
f 547/8/4 551/8/4 555/8/4
f 551/3/4 552/3/4 556/3/4
f 555/8/4 551/8/4 556/8/4
f 552/2/4 553/2/4 557/2/4
f 556/3/4 552/3/4 557/3/4
f 553/2/4 554/2/4 557/2/4
f 557/2/4 554/2/4 558/2/4
f 562/7/5 560/7/5 559/7/5
f 563/7/5 560/7/5 562/7/5
f 565/8/5 562/8/5 561/8/5
f 565/8/5 564/8/5 563/8/5
f 565/8/5 563/8/5 562/8/5
f 566/8/5 564/8/5 565/8/5
f 567/6/5 566/6/5 565/6/5
f 568/6/5 566/6/5 567/6/5
f 569/8/5 565/8/5 561/8/5
f 570/6/5 567/6/5 565/6/5
f 570/8/5 565/8/5 569/8/5
f 571/8/5 569/8/5 561/8/5
f 572/5/5 570/5/5 569/5/5
f 572/8/5 569/8/5 571/8/5
f 573/6/5 567/6/5 570/6/5
f 573/5/5 570/5/5 572/5/5
f 574/5/5 568/5/5 567/5/5
f 574/6/5 567/6/5 573/6/5
f 575/6/5 566/6/5 568/6/5
f 575/5/5 568/5/5 574/5/5
f 576/8/5 564/8/5 566/8/5
f 576/6/5 566/6/5 575/6/5
f 577/8/5 564/8/5 576/8/5
f 580/2/5 579/2/5 578/2/5
f 581/2/5 579/2/5 580/2/5
f 582/2/5 579/2/5 581/2/5
f 583/7/6 584/7/6 585/7/6
f 585/7/6 584/7/6 586/7/6
f 587/6/6 588/6/6 589/6/6
f 589/6/6 588/6/6 590/6/6
f 587/6/6 589/6/6 591/6/6
f 589/5/6 590/5/6 592/5/6
f 591/6/6 589/6/6 592/6/6
f 590/6/6 588/6/6 593/6/6
f 592/5/6 590/5/6 593/5/6
f 593/6/6 588/6/6 594/6/6
f 595/4/6 596/4/6 597/4/6
f 597/4/6 596/4/6 598/4/6
f 595/4/6 597/4/6 599/4/6
f 599/4/6 597/4/6 600/4/6
f 601/4/6 602/4/6 603/4/6
f 603/4/6 602/4/6 604/4/6
f 605/4/6 606/4/6 609/4/6
f 609/4/6 606/4/6 610/4/6
f 607/4/6 608/4/6 611/4/6
f 611/4/6 608/4/6 612/4/6
f 613/4/6 614/4/6 617/4/6
f 617/4/6 614/4/6 618/4/6
f 615/4/6 616/4/6 619/4/6
f 619/4/6 616/4/6 620/4/6
f 621/4/6 622/4/6 625/4/6
f 625/4/6 622/4/6 626/4/6
f 623/4/6 624/4/6 627/4/6
f 627/4/6 624/4/6 628/4/6
f 629/4/6 630/4/6 631/4/6
f 631/4/6 630/4/6 632/4/6
f 633/4/6 634/4/6 637/4/6
f 637/4/6 634/4/6 638/4/6
f 635/4/6 636/4/6 639/4/6
f 639/4/6 636/4/6 640/4/6
f 641/4/6 642/4/6 643/4/6
f 643/4/6 642/4/6 644/4/6
f 645/4/6 646/4/6 647/4/6
f 647/4/6 646/4/6 648/4/6
f 649/4/6 650/4/6 651/4/6
f 651/4/6 650/4/6 652/4/6
f 653/4/6 654/4/6 655/4/6
f 655/4/6 654/4/6 656/4/6
f 657/4/6 658/4/6 659/4/6
f 659/4/6 658/4/6 660/4/6
f 661/1/6 662/1/6 663/1/6
f 663/1/6 662/1/6 664/1/6
f 665/1/6 666/1/6 671/1/6
f 671/1/6 666/1/6 672/1/6
f 667/1/6 668/1/6 673/1/6
f 673/1/6 668/1/6 674/1/6
f 669/1/6 670/1/6 675/1/6
f 675/1/6 670/1/6 676/1/6
f 677/1/6 678/1/6 679/1/6
f 679/1/6 678/1/6 680/1/6
f 681/1/6 682/1/6 689/1/6
f 689/1/6 682/1/6 690/1/6
f 683/1/6 684/1/6 691/1/6
f 691/1/6 684/1/6 692/1/6
f 685/1/6 686/1/6 693/1/6
f 693/1/6 686/1/6 694/1/6
f 687/1/6 688/1/6 695/1/6
f 695/1/6 688/1/6 696/1/6
f 696/1/6 688/1/6 697/1/6
f 697/1/6 688/1/6 698/1/6
f 699/1/6 700/1/6 701/1/6
f 701/1/6 700/1/6 702/1/6
f 703/1/6 704/1/6 705/1/6
f 705/1/6 704/1/6 706/1/6
f 707/1/6 708/1/6 711/1/6
f 711/1/6 708/1/6 712/1/6
f 709/1/6 710/1/6 713/1/6
f 713/1/6 710/1/6 714/1/6
f 715/1/6 716/1/6 719/1/6
f 719/1/6 716/1/6 720/1/6
f 717/1/6 718/1/6 721/1/6
f 721/1/6 718/1/6 722/1/6
f 723/1/6 724/1/6 727/1/6
f 727/1/6 724/1/6 728/1/6
f 725/1/6 726/1/6 729/1/6
f 729/1/6 726/1/6 730/1/6
f 731/1/6 732/1/6 733/1/6
f 733/1/6 732/1/6 734/1/6
f 731/1/6 733/1/6 735/1/6
f 735/1/6 733/1/6 736/1/6
f 737/1/6 738/1/6 739/1/6
f 739/1/6 738/1/6 740/1/6
f 741/2/6 742/2/6 745/2/6
f 745/2/6 742/2/6 746/2/6
f 743/1/6 744/1/6 747/1/6
f 747/1/6 744/1/6 748/1/6
f 749/2/6 750/2/6 751/2/6
f 751/2/6 750/2/6 752/2/6
f 753/2/6 754/2/6 756/2/6
f 756/2/6 754/2/6 757/2/6
f 755/1/6 756/1/6 757/1/6
f 757/2/6 754/2/6 758/2/6
f 759/2/6 760/2/6 761/2/6
f 761/2/6 760/2/6 762/2/6
f 755/1/6 757/1/6 763/1/6
f 763/1/6 757/1/6 764/1/6
f 765/2/6 766/2/6 767/2/6
f 767/2/6 766/2/6 768/2/6
f 769/2/6 770/2/6 771/2/6
f 771/2/6 770/2/6 772/2/6
f 772/2/6 770/2/6 773/2/6
f 772/2/6 773/2/6 777/2/6
f 773/2/6 774/2/6 777/2/6
f 777/2/6 774/2/6 778/2/6
f 775/2/6 776/2/6 779/2/6
f 779/2/6 776/2/6 780/2/6
f 781/2/6 782/2/6 783/2/6
f 783/2/6 782/2/6 784/2/6
f 785/2/6 786/2/6 789/2/6
f 789/2/6 786/2/6 790/2/6
f 787/2/6 788/2/6 791/2/6
f 791/2/6 788/2/6 792/2/6
f 793/2/6 794/2/6 797/2/6
f 797/2/6 794/2/6 798/2/6
f 795/2/6 796/2/6 799/2/6
f 799/2/6 796/2/6 800/2/6
f 800/2/6 796/2/6 801/2/6
f 801/2/6 796/2/6 802/2/6
f 803/2/6 804/2/6 805/2/6
f 805/2/6 804/2/6 806/2/6
f 807/2/6 808/2/6 809/2/6
f 809/2/6 808/2/6 810/2/6
f 811/2/6 812/2/6 813/2/6
f 813/2/6 812/2/6 814/2/6
f 814/2/6 812/2/6 815/2/6
f 815/2/6 812/2/6 816/2/6
f 817/2/6 818/2/6 819/2/6
f 819/2/6 818/2/6 820/2/6
f 821/2/6 822/2/6 823/2/6
f 823/2/6 822/2/6 824/2/6
f 825/2/6 826/2/6 827/2/6
f 827/2/6 826/2/6 828/2/6
f 825/2/6 827/2/6 829/2/6
f 829/2/6 827/2/6 830/2/6
